<svg xmlns="http://www.w3.org/2000/svg" viewBox="0 0 22.4 26"><defs><style>.\33 10231bd-d381-4c75-afa7-1615c7f4fedf,.\34 1119777-d9b8-4964-9d89-64e070109092{fill:#fcee21;}.\36 eeea366-e8df-4219-9748-f3408747c880{fill:#f7931e;}.d2b0718e-2933-43aa-9965-78fd155e3c99{fill:#fff;}.\34 1119777-d9b8-4964-9d89-64e070109092,.\37 374a59b-ed69-456c-b4bd-df3afcfc6da0{stroke:#f7931e;stroke-linecap:round;stroke-miterlimit:10;}.\37 374a59b-ed69-456c-b4bd-df3afcfc6da0{fill:none;}</style></defs><title>icono-torneo</title><g id="7493082e-1c1b-40bc-816f-62073f6ebbff" data-name="Capa 2"><g id="1fb3247e-7309-4942-bffa-daddcd8acb0b" data-name="Editar cosas"><path class="310231bd-d381-4c75-afa7-1615c7f4fedf" d="M16.2,25.5v0H6.2a.6.6,0,0,1-.6-.6V24a.6.6,0,0,1,.7-.6h.3s0-.9,0-1.1a.7.7,0,0,1,.2-.5l.5-.2H9.5c0-.7,0-1.4,0-2.1a6.2,6.2,0,0,1-2.4-1.9H6.6a5.8,5.8,0,0,1-2.3-.5,5.3,5.3,0,0,1-2.1-1.6A8.2,8.2,0,0,1,.7,11.8,10.5,10.5,0,0,1,.5,9.6c0-.5.2-.7.7-.7H4.5V8.5a.6.6,0,0,1,.6-.6h12a.6.6,0,0,1,.7.6v.3h4v2.3l-.2.9a7.6,7.6,0,0,1-1.7,3.5,5.3,5.3,0,0,1-2.8,1.7l-1.5.2h-.4a6.6,6.6,0,0,1-2.1,1.9h-.2c0,.6,0,1.1,0,1.7v.4h2.2c.5,0,.8.2.8.8s0,.8,0,1.1h.3l.5.2a.7.7,0,0,1,.2.5c0,.2,0,.5,0,.7a.6.6,0,0,1-.2.5l-.5.2Zm1.6-14.2a14.2,14.2,0,0,1-.5,2.5L16.8,15a2.9,2.9,0,0,0,1.7-1.3,6.2,6.2,0,0,0,.9-2.5ZM3,11.3a6.5,6.5,0,0,0,.8,2.2,3.3,3.3,0,0,0,1,1.1l.8.4-.4-1a14.6,14.6,0,0,1-.6-2.8Z"/><path class="6eeea366-e8df-4219-9748-f3408747c880" d="M10.6,8.4h6.6c.1,0,.2,0,.2.2a5.5,5.5,0,0,1,0,.6c0,.2.1.2.2.2h3.8v1.4c-.1.4-.1.9-.2,1.3a7.2,7.2,0,0,1-1.6,3.3A4.8,4.8,0,0,1,17,16.9H15.3l-.3.2a6.1,6.1,0,0,1-2,1.8h-.3c-.2.1-.2.2-.2.4s0,1.6,0,2.4,0,.2.2.2h2.4c.3,0,.3,0,.3.3s0,.9,0,1.4,0,.2.2.2h.6c.1,0,.2.1.2.2s0,.5,0,.7,0,.2-.1.2H6c0-.3,0-.5,0-.8s.1-.1.2-.1h.7c.1,0,.2,0,.2-.2s0-1,0-1.4,0-.2.2-.2H9.8c.2,0,.2-.1.2-.2s0-1.7,0-2.5a.2.2,0,0,0-.2-.2,5.7,5.7,0,0,1-2.3-1.8L7.1,17H6.6a5.2,5.2,0,0,1-2.1-.4,4.8,4.8,0,0,1-1.9-1.4,7.8,7.8,0,0,1-1.5-3.5A10,10,0,0,1,1,9.6c0-.2,0-.2.2-.2H4.8c.3,0,.3,0,.3-.3s0-.4,0-.6h5.6M4.4,10.8H2.6c-.2,0-.2,0-.1.4a7.2,7.2,0,0,0,.9,2.6,3.8,3.8,0,0,0,1.2,1.3,3.6,3.6,0,0,0,1.7.6h.1s0-.1,0-.1a9.6,9.6,0,0,1-.7-1.6A14,14,0,0,1,5.1,11c0-.1-.1-.2-.2-.2H4.4M16,15.7h.3A3.5,3.5,0,0,0,18.9,14a7.1,7.1,0,0,0,1.1-3.1c0-.1,0-.1-.1-.1H17.4c-.1,0-.2.1-.2.2a14.1,14.1,0,0,1-.5,2.7,9.5,9.5,0,0,1-.6,1.6l-.2.3h0M10.6,7.4H5.2A1.1,1.1,0,0,0,4,8.4H1.2A1.1,1.1,0,0,0,0,9.6a11,11,0,0,0,.2,2.3,8.7,8.7,0,0,0,1.7,3.9,5.8,5.8,0,0,0,2.3,1.7,6.2,6.2,0,0,0,2.5.5h.2A6.8,6.8,0,0,0,9,19.8q0,.6,0,1.3H7.2A1.2,1.2,0,0,0,6,22.3c0,.2,0,.4,0,.6A1.1,1.1,0,0,0,5,24c0,.3,0,.5,0,.8A1.1,1.1,0,0,0,6.2,26h10a1.1,1.1,0,0,0,.8-.3,1.2,1.2,0,0,0,.3-.8c0-.2,0-.5,0-.7a1.2,1.2,0,0,0-.3-.9l-.6-.3v-.6a1.1,1.1,0,0,0-1.3-1.3H13.4c0-.4,0-.8,0-1.3A7,7,0,0,0,15.5,18h.1l1.6-.2A5.8,5.8,0,0,0,20.3,16a8.1,8.1,0,0,0,1.8-3.8l.2-1v-.4h0V8.4h-4a1.1,1.1,0,0,0-1.2-1H10.6ZM4.7,13.9l-.5-.6a5.6,5.6,0,0,1-.6-1.5h.6a15,15,0,0,0,.4,2.1Zm13,0a14.4,14.4,0,0,0,.4-2.1h.6a5.3,5.3,0,0,1-.7,1.7l-.3.4Z"/><path class="d2b0718e-2933-43aa-9965-78fd155e3c99" d="M6.3,9.5c0-.3.4-.4.6-.4H10v.7H7.1A2.8,2.8,0,0,0,7,11.7C6.5,11.4,6.3,10.7,6.3,9.5Z"/><path class="d2b0718e-2933-43aa-9965-78fd155e3c99" d="M7.6,22.7c0-.2.3-.3.5-.3h2.4v.5H8.3a2.2,2.2,0,0,0-.1,1.5C7.8,24.1,7.6,23.6,7.6,22.7Z"/><line class="41119777-d9b8-4964-9d89-64e070109092" x1="3.6" y1="1.9" x2="6.9" y2="5.1"/><line class="41119777-d9b8-4964-9d89-64e070109092" x1="18.2" y1="2" x2="15" y2="5.1"/><line class="7374a59b-ed69-456c-b4bd-df3afcfc6da0" x1="11.2" y1="0.5" x2="11.2" y2="5.1"/></g></g></svg>