<svg xmlns="http://www.w3.org/2000/svg" viewBox="0 0 43.4 43.4"><defs><style>.\33 d3bf0ca-001f-4494-950b-3f53eefe55f4{fill:#ffbc04;}.\35 d9927b1-ce75-4898-bd94-c8c6ca4a435e{fill:#35393d;}.cabff731-ba7c-49d8-a1ae-cfa94eef7e88{fill:#26292e;}.\35 134cf08-7fea-4884-85f5-2c82f1abb8f2{fill:#202429;}.\39 2b5bf2d-be96-4b3b-9e3c-1f34c76100fb{fill:#0185fb;}.\36 7bb13ac-d357-43dc-9020-8aa65008081b{fill:#fff;}.\30 0a54e07-db6d-435e-a3f0-ed9ab2b0c10a{fill:#f6bf99;}.\35 b7d03cf-c904-4bd1-8f02-87d42cb4ab95{fill:#eda17c;}.\35 c4ee241-8f85-412f-8920-79bf8cef1583{fill:#f5be99;}.d95a2c45-fa81-4a68-ac76-5b4e2566cb44{fill:#eaa07b;}.\31 f42b991-cf34-4cdf-86ca-c9f9cb650a99{fill:#77c2f8;}</style></defs><title>icono-afiliacion-individual</title><g id="d1fa415b-65b9-4111-9c30-c0a1905b3269" data-name="Capa 2"><g id="a5a00be3-414d-47b3-bf78-d27245dd9551" data-name="Editar cosas"><circle class="3d3bf0ca-001f-4494-950b-3f53eefe55f4" cx="21.7" cy="21.7" r="21.7"/><path class="5d9927b1-ce75-4898-bd94-c8c6ca4a435e" d="M33,26.7c0-1.1,0-1.1-1.1-1.3l-5.6-1.7-1.5-.4c0,1.1,0,1.1,1,1.3l1.1.2c.4.1.5.3.2.6h-.3L25.4,25a1.1,1.1,0,0,0-1.2.3L22,26.5l.4.2a3.7,3.7,0,0,1,2.7,3.1c.1.6-.1.8-.7.8h-.8c-.7-.1-1,2.1-1.2,2.7h8.2c.4,0,.4-.2.4-.5s.5-3.9.8-4.9.1-.6.4-.5.2.4.1.6-.5,3.8-.8,4.8,0,.4.3.4h.3c.5.1.7-.1.6-.6S33,28.1,33,26.7ZM25.7,15.4c0,.6,0,1.1,0,1.7s.1.3.3.2a1.1,1.1,0,0,0,.7-1.1,1.1,1.1,0,0,0-.6-1.1C26,15,25.7,15,25.7,15.4Zm-8.4-.9h8.3c.3,0,.4-.1.4-.4s0-1.4,0-2.1a2.5,2.5,0,0,0-2.5-2.5h-4a2.5,2.5,0,0,0-2.5,2.5c0,.7,0,1.4,0,2.1S17,14.5,17.3,14.5Zm7.8.5H17.9v.2c0,1.2,0,2.5,0,3.7a1.2,1.2,0,0,0,.5.9L21,22.2c.2.2.3.1.5,0a.9.9,0,0,0,.7-.3L24.6,20a1.4,1.4,0,0,0,.5-1.2c0-1.1,0-2.1,0-3.2S25.2,15.2,25.1,15.1ZM24,21.2l-1.3,1.1a1.7,1.7,0,0,1-2.5,0l-1.3-1.1v1.2l-.2,1.6c0,.3.1.4.3.4a7.2,7.2,0,0,0,4.1.2c1.1-.4,1.2-.3,1.1-1.4a2.8,2.8,0,0,0-.1-.9Zm-3.1,8.5a4,4,0,0,0-.1,2.9c.4.4.8.5,1.2.1a4.1,4.1,0,0,0,.1-3A.8.8,0,0,0,20.9,29.7Zm-1.9.9h-.7c-.5.1-.6-.2-.6-.6A3.7,3.7,0,0,1,19.6,27l1.3-.5-2.2-1.2c-.2-.2-.5-.4-.8-.3l-1.7.4h-.3c-.3-.3-.2-.5.2-.6l1.1-.2c.9-.2,1-.3.9-1.2l-1.2.4L11,25.4h-.3c-.6.1-.8.4-.8,1s0,2.7,0,4,0,2.8,1,2.7.4-.1.3-.4-.5-3.9-.8-5-.2-.5.1-.6.3.2.4.4.5,3.9.8,5,.2.5.6.5H20c.1,0,.3.1.4,0S19.7,30.5,19,30.6ZM17.1,17.3c.2-.1.1-.3.1-.5s0-.4,0-.6,0-.5,0-.8-.2-.4-.5-.3a1.2,1.2,0,0,0-.1,1.9C16.7,17.3,16.9,17.4,17.1,17.3Zm9.1-2.2c-.2-.1-.4-.1-.4.2s0,1.1,0,1.7.1.3.3.2a1.1,1.1,0,0,0,.7-1.1A1.1,1.1,0,0,0,26.2,15.2Zm-9,1.7c0-.2,0-.4,0-.6s0-.5,0-.8-.2-.4-.5-.3a1.2,1.2,0,0,0-.1,1.9c.2.1.3.3.6.2S17.2,17,17.2,16.8ZM33,26.7c0-1.1,0-1.1-1.1-1.3l-5.6-1.7-1.5-.4c0,1.1,0,1.1,1,1.3l1.1.2c.4.1.5.3.2.6h-.3L25.4,25a1.1,1.1,0,0,0-1.2.3L22,26.5l.4.2a3.7,3.7,0,0,1,2.7,3.1c.1.6-.1.8-.7.8h-.8c-.7-.1-1,2.1-1.2,2.7h8.2c.4,0,.4-.2.4-.5s.5-3.9.8-4.9.1-.6.4-.5.2.4.1.6-.5,3.8-.8,4.8,0,.4.3.4h.3c.5.1.7-.1.6-.6S33,28.1,33,26.7ZM19,30.6h-.7c-.5.1-.6-.2-.6-.6A3.7,3.7,0,0,1,19.6,27l1.3-.5-2.2-1.2c-.2-.2-.5-.4-.8-.3l-1.7.4h-.3c-.3-.3-.2-.5.2-.6l1.1-.2c.9-.2,1-.3.9-1.2l-1.2.4L11,25.4h-.3c-.6.1-.8.4-.8,1s0,2.7,0,4,0,2.8,1,2.7.4-.1.3-.4-.5-3.9-.8-5-.2-.5.1-.6.3.2.4.4.5,3.9.8,5,.2.5.6.5H20c.1,0,.3.1.4,0S19.7,30.5,19,30.6Zm7-18.5a2.5,2.5,0,0,0-2.5-2.5h-4a2.5,2.5,0,0,0-2.5,2.5c0,.7,0,1.4,0,2.1s.1.4.4.4h8.3c.3,0,.4-.1.4-.4S26,12.8,26,12.1Zm-.9,3H17.9v.2c0,1.2,0,2.5,0,3.7a1.2,1.2,0,0,0,.5.9L21,22.2c.2.2.3.1.5,0a.9.9,0,0,0,.7-.3L24.6,20a1.4,1.4,0,0,0,.5-1.2c0-1.1,0-2.1,0-3.2S25.2,15.2,25.1,15.1Zm-.9,8.2a2.8,2.8,0,0,0-.1-.9V21.2l-1.3,1.1a1.7,1.7,0,0,1-2.5,0l-1.3-1.1v1.2l-.2,1.6c0,.3.1.4.3.4a7.2,7.2,0,0,0,4.1.2C24.2,24.4,24.2,24.5,24.2,23.3Z"/><path class="5d9927b1-ce75-4898-bd94-c8c6ca4a435e" d="M33.3,25.2l-.9-.3L26.1,23c-1.4-.4-1.4-.4-1.5-1.9a.5.5,0,0,1,.2-.5,2.1,2.1,0,0,0,1-2.2c0-.3.1-.4.4-.5A1.7,1.7,0,0,0,27.4,16a1.5,1.5,0,0,0-.7-1.2c-.1-.1-.1-.6-.1-2.6a3,3,0,0,0-2.9-3.1H19.3a3,3,0,0,0-2.9,3c0,.7,0,1.4,0,2.1a1,1,0,0,1-.3.8,1.7,1.7,0,0,0,.7,2.9c.3.1.5.2.4.6a2.1,2.1,0,0,0,1,2.1.5.5,0,0,1,.2.5c-.1,1.5-.1,1.5-1.5,2l-.5.2-6.1,1.9c-.3.1-.8,0-.8.6s0,5.8,0,7.9H33.6c0-2,0-5.9,0-7.9C33.6,25.4,33.5,25.2,33.3,25.2Zm-6.5-9a1.1,1.1,0,0,1-.7,1.1c-.2.1-.3.1-.3-.2s0-1.1,0-1.7.2-.3.4-.2A1.1,1.1,0,0,1,26.8,16.2Zm-9.7,1.1c-.2.1-.4-.1-.6-.2a1.2,1.2,0,0,1,.1-1.9c.3-.2.5-.2.5.3s0,.5,0,.8,0,.4,0,.6S17.3,17.3,17.1,17.3Zm-.2-3.2c0-.7,0-1.4,0-2.1a2.5,2.5,0,0,1,2.5-2.5h4A2.5,2.5,0,0,1,26,12.1c0,.7,0,1.4,0,2.1s-.1.4-.4.4H17.3C17,14.5,16.9,14.4,16.9,14.2Zm1.3,5.7a1.2,1.2,0,0,1-.5-.9c0-1.2,0-2.5,0-3.7v-.2h7.2c.2.1.1.3.1.5s0,2.1,0,3.2a1.4,1.4,0,0,1-.5,1.2l-2.4,1.9a.9.9,0,0,1-.7.3c-.2.1-.3.1-.5,0Zm4.8,4.8a7.2,7.2,0,0,1-4.1-.2c-.3-.1-.4-.2-.3-.4l.2-1.6V21.2l1.3,1.1a1.7,1.7,0,0,0,2.5,0L24,21.2v1.2a2.8,2.8,0,0,1,.1.9C24.2,24.5,24.2,24.4,23.1,24.7Zm-3,8.5H12.4c-.4,0-.6-.2-.6-.5s-.5-3.9-.8-5-.1-.5-.4-.4-.2.4-.1.6.5,3.9.8,5,0,.4-.3.4-1-1.7-1-2.7,0-2.7,0-4,.2-1,.8-1H11l5.9-1.8,1.2-.4c.1,1,.1,1.1-.9,1.2l-1.1.2c-.4.1-.5.3-.2.6h.3l1.7-.4c.3-.1.6.2.8.3L21,26.5l-1.3.5a3.7,3.7,0,0,0-1.9,2.9c-.1.5.1.7.6.6H19c.7-.1,1.3,1.7,1.4,2.6S20.2,33.2,20,33.2Zm12.3,0H32c-.3,0-.4-.1-.3-.4s.5-3.8.8-4.8.2-.5-.1-.6-.4.2-.4.5-.5,3.9-.8,4.9-.1.5-.4.5H22.5c.2-.6.5-2.8,1.2-2.7h.8c.6,0,.8-.2.7-.8a3.7,3.7,0,0,0-2.7-3.1l-.4-.2,2.1-1.2a1.1,1.1,0,0,1,1.2-.3l1.3.3H27c.3-.3.2-.5-.2-.6l-1.1-.2c-1-.2-1-.2-1-1.3l1.5.4,5.6,1.7c1.1.2,1.1.2,1.1,1.3s0,4.6,0,6S32.9,33.3,32.4,33.3Z"/><path class="cabff731-ba7c-49d8-a1ae-cfa94eef7e88" d="M9.5,33.6h0Z"/><path class="cabff731-ba7c-49d8-a1ae-cfa94eef7e88" d="M33.3,33.8h0Z"/><path class="5134cf08-7fea-4884-85f5-2c82f1abb8f2" d="M9.5,33.6h0Z"/><path class="5134cf08-7fea-4884-85f5-2c82f1abb8f2" d="M33.5,33.6h0Z"/><path class="92b5bf2d-be96-4b3b-9e3c-1f34c76100fb" d="M33,32.6c0,.5-.2.7-.6.6H32c-.3,0-.4-.1-.3-.4s.5-3.8.8-4.8.2-.5-.1-.6-.4.2-.4.5-.5,3.9-.8,4.9-.1.5-.4.5H12.4c-.4,0-.6-.2-.6-.5s-.5-3.9-.8-5-.1-.5-.4-.4-.2.4-.1.6.5,3.9.8,5,0,.4-.3.4-1-1.7-1-2.7,0-2.7,0-4,.2-1,.8-1H11a47.8,47.8,0,0,0,4.9-.1h2.8l2.5,1c.9-.3,2.3-.7,2.9-1H27a46,46,0,0,0,4.9.1c1.1.2,1.1.2,1.1,1.3S33,31.2,33,32.6Z"/><path class="67bb13ac-d357-43dc-9020-8aa65008081b" d="M24.8,25.3l-1.7,8H20l-1.6-8h.4l2.5,1a29.3,29.3,0,0,0,2.9-1Z"/><path class="5d9927b1-ce75-4898-bd94-c8c6ca4a435e" d="M26,12.1c0,.7,0,1.4,0,2.1s-.1.4-.4.4H17.3c-.3,0-.4-.1-.4-.4s0-1.4,0-2.1a3,3,0,0,1,2.9-1.5h3.3A3,3,0,0,1,26,12.1Zm-4.4.3h-1c-.4,0-.5.2-.5.6s-.2.9.5.9h1.7c.7,0,.7,0,.8-.7s-.1-.8-.7-.7Z"/><path class="00a54e07-db6d-435e-a3f0-ed9ab2b0c10a" d="M21.5,15.1v7.1c-.2.1-.3.1-.5,0l-2.8-2.3a1.2,1.2,0,0,1-.5-.9c0-1.2,0-2.5,0-3.7v-.2h3.7Z"/><path class="5b7d03cf-c904-4bd1-8f02-87d42cb4ab95" d="M21.5,22.2q0-3.5,0-7.1h3.6c.2.1.1.3.1.5s0,2.1,0,3.2a1.4,1.4,0,0,1-.5,1.2l-2.4,1.9A.9.9,0,0,1,21.5,22.2Z"/><path class="5d9927b1-ce75-4898-bd94-c8c6ca4a435e" d="M26,12.1a3,3,0,0,0-2.9-1.5H19.8a3,3,0,0,0-2.9,1.5,2.5,2.5,0,0,1,2.5-2.5h4A2.5,2.5,0,0,1,26,12.1Z"/><path class="5c4ee241-8f85-412f-8920-79bf8cef1583" d="M24.1,22.4a2.7,2.7,0,0,1,.1.8c.1,1.2,0,1.1-1.1,1.4a7.2,7.2,0,0,1-4.1-.2c-.3-.1-.4-.2-.3-.4l.2-1.6c.7.2,1,.8,1.6,1.2a1.4,1.4,0,0,0,2.1,0C23,23.2,23.4,22.7,24.1,22.4Z"/><path class="d95a2c45-fa81-4a68-ac76-5b4e2566cb44" d="M24.1,22.4c-.7.2-1,.8-1.6,1.2a1.4,1.4,0,0,1-2.1,0c-.5-.4-.9-.9-1.6-1.2V21.2l1.3,1.1a1.7,1.7,0,0,0,2.5,0L24,21.2Z"/><path class="1f42b991-cf34-4cdf-86ca-c9f9cb650a99" d="M15.9,25.3a48.5,48.5,0,0,1-4.9.1l5.9-1.8,1.2-.4c.1,1,.1,1.1-.9,1.2l-1.1.2C15.7,24.8,15.7,25,15.9,25.3Z"/><path class="1f42b991-cf34-4cdf-86ca-c9f9cb650a99" d="M31.9,25.4a48.4,48.4,0,0,1-4.9-.1c.3-.3.2-.5-.2-.6l-1.1-.2c-1-.2-1-.2-1-1.3l1.5.4Z"/><path class="00a54e07-db6d-435e-a3f0-ed9ab2b0c10a" d="M17.2,16.3c0,.2,0,.4,0,.6s.1.4-.1.5-.4-.1-.6-.2a1.2,1.2,0,0,1,.1-1.9c.3-.2.5-.2.5.3S17.2,16,17.2,16.3Z"/><path class="00a54e07-db6d-435e-a3f0-ed9ab2b0c10a" d="M26.8,16.2a1.2,1.2,0,0,1-.7,1.1c-.2.1-.4.1-.3-.2s0-1.1,0-1.7.2-.4.4-.2A1.1,1.1,0,0,1,26.8,16.2Z"/><path class="1f42b991-cf34-4cdf-86ca-c9f9cb650a99" d="M18.8,25.3H16.2l1.7-.4C18.3,24.8,18.5,25.1,18.8,25.3Z"/><path class="1f42b991-cf34-4cdf-86ca-c9f9cb650a99" d="M26.7,25.3H24.2a1.1,1.1,0,0,1,1.2-.3Z"/><path class="5134cf08-7fea-4884-85f5-2c82f1abb8f2" d="M25.1,15.1h0Z"/><path class="5d9927b1-ce75-4898-bd94-c8c6ca4a435e" d="M21.6,15s3.8-.1,3.8,2.8V13.3H21.7Z"/><path class="5d9927b1-ce75-4898-bd94-c8c6ca4a435e" d="M22.5,29.1c-.3,1.5-.5,3.1-.8,4.7h-.7c-.3-1.6-.5-3.2-.8-4.7a1.5,1.5,0,0,1,.6-1.7c.3-.2.3-.4.1-.7a8.3,8.3,0,0,1-.9-1.4,6,6,0,0,0,2.4.1c.3-.1.2.1.1.3l-.7,1.1c-.2.3-.2.5.1.7A1.5,1.5,0,0,1,22.5,29.1Z"/></g></g></svg>