<svg xmlns="http://www.w3.org/2000/svg" viewBox="0 0 43.4 43.4"><defs><style>.\30 71c907b-6392-4aba-b3fa-bfd15a709f4f{fill:#ffbc04;}.d5c2bcb0-ae5f-4811-ad61-dace9c6b9961{fill:#35393d;}.\37 e4c5713-c679-4544-b882-10638937a629{fill:#26292e;}.\39 f2adeb6-13ab-46ac-8e69-2e3076b0edca{fill:#202429;}.\37 47ecc56-3499-4741-aef7-28198798fef9{fill:#0185fb;}.ddd83f78-afba-45b7-a53d-a67a7b431c66{fill:#fff;}.\39 a4e4154-2845-44a5-9625-7caabb2085c2{fill:#f6bf99;}.bfc432da-c08f-48be-b36b-792ea0b6a9b3{fill:#eda17c;}.c6c537d6-b612-4320-a673-ee7f89df3a5e{fill:#f5be99;}.\33 97e4908-2e55-4677-b233-88f94384db6c{fill:#eaa07b;}.\34 216d478-7800-4a1d-88c1-9a01ec95e649{fill:#77c2f8;}</style></defs><title>icono-club-asociados</title><g id="24c52aa8-6611-4b47-8ce6-ab37318ed7d1" data-name="Capa 2"><g id="c97d8256-dc68-4ec6-b99c-8001a97a2c7c" data-name="Editar cosas"><circle class="071c907b-6392-4aba-b3fa-bfd15a709f4f" cx="21.7" cy="21.7" r="21.7"/><path class="d5c2bcb0-ae5f-4811-ad61-dace9c6b9961" d="M36.8,24.7c0-.7,0-.7-.7-.8l-3.6-1.1-1-.3c0,.7,0,.7.6.8h.7c.3.1.3.2.1.4h-.2l-.8-.2a.7.7,0,0,0-.8.2l-1.4.8H30a2.4,2.4,0,0,1,1.7,2c.1.4,0,.5-.4.5h-.5c-.5-.1-.6,1.3-.8,1.7h5.3c.2,0,.2-.2.3-.3s.3-2.5.5-3.2,0-.4.3-.3.1.3.1.4-.3,2.4-.5,3.1,0,.3.2.3h.2c.3,0,.4-.1.4-.4S36.8,25.6,36.8,24.7Zm-4.6-7.2c0,.4,0,.7,0,1.1s.1.2.2.1a.7.7,0,0,0,.5-.7.7.7,0,0,0-.4-.7C32.3,17.3,32.1,17.3,32.1,17.5Zm-5.4-.6h5.3c.2,0,.2-.1.2-.2s0-.9,0-1.3a1.6,1.6,0,0,0-1.6-1.6H28.1a1.6,1.6,0,0,0-1.6,1.6c0,.4,0,.9,0,1.3S26.6,16.9,26.7,16.9Zm5,.4H27.1c0,.8,0,1.6,0,2.4a.8.8,0,0,0,.3.6l1.8,1.4h.3l.5-.2,1.5-1.2a.9.9,0,0,0,.3-.8c0-.7,0-1.4,0-2S31.8,17.4,31.7,17.3ZM31,21.2l-.8.7a1.1,1.1,0,0,1-1.6,0l-.8-.7V23c0,.2.1.2.2.3a4.6,4.6,0,0,0,2.6.1c.7-.2.7-.2.7-.9a1.8,1.8,0,0,0-.1-.5Zm-2,5.4a2.6,2.6,0,0,0-.1,1.9c.3.3.5.3.8.1a2.6,2.6,0,0,0,.1-1.9A.5.5,0,0,0,29.1,26.6Zm-1.2.6h-.4c-.3,0-.4-.1-.4-.4a2.4,2.4,0,0,1,1.2-1.9l.9-.3-1.4-.8c-.2-.1-.3-.3-.5-.2l-1.1.2h-.2c-.2-.2-.1-.3.1-.4h.7c.6-.1.6-.2.6-.8l-.8.2-3.8,1.2h-.2c-.4,0-.5.3-.5.7s0,1.7,0,2.6,0,1.8.7,1.8.2,0,.2-.2-.3-2.5-.5-3.2-.1-.3.1-.4.2.1.3.3.3,2.5.5,3.2.1.3.4.3h5.1C28.6,28.3,28.3,27.1,27.8,27.2Zm-1.2-8.4c.1-.1,0-.2.1-.3s0-.2,0-.4,0-.3,0-.5-.1-.3-.3-.2a.8.8,0,0,0-.1,1.2C26.4,18.7,26.5,18.8,26.6,18.7Zm5.8-1.4c-.1-.1-.3-.1-.3.1s0,.7,0,1.1.1.2.2.1a.7.7,0,0,0,.5-.7A.7.7,0,0,0,32.4,17.3Zm-5.7,1.1c0-.1,0-.2,0-.4s0-.3,0-.5-.1-.3-.3-.2a.8.8,0,0,0-.1,1.2c.1.1.2.2.4.1S26.7,18.5,26.7,18.4Zm10.1,6.3c0-.7,0-.7-.7-.8l-3.6-1.1-1-.3c0,.7,0,.7.6.8h.7c.3.1.3.2.1.4h-.2l-.8-.2a.7.7,0,0,0-.8.2l-1.4.8H30a2.4,2.4,0,0,1,1.7,2c.1.4,0,.5-.4.5h-.5c-.5-.1-.6,1.3-.8,1.7h5.3c.2,0,.2-.2.3-.3s.3-2.5.5-3.2,0-.4.3-.3.1.3.1.4-.3,2.4-.5,3.1,0,.3.2.3h.2c.3,0,.4-.1.4-.4S36.8,25.6,36.8,24.7Zm-8.9,2.5h-.4c-.3,0-.4-.1-.4-.4a2.4,2.4,0,0,1,1.2-1.9l.9-.3-1.4-.8c-.2-.1-.3-.3-.5-.2l-1.1.2h-.2c-.2-.2-.1-.3.1-.4h.7c.6-.1.6-.2.6-.8l-.8.2-3.8,1.2h-.2c-.4,0-.5.3-.5.7s0,1.7,0,2.6,0,1.8.7,1.8.2,0,.2-.2-.3-2.5-.5-3.2-.1-.3.1-.4.2.1.3.3.3,2.5.5,3.2.1.3.4.3h5.1C28.6,28.3,28.3,27.1,27.8,27.2Zm4.5-11.8a1.6,1.6,0,0,0-1.6-1.6H28.1a1.6,1.6,0,0,0-1.6,1.6c0,.4,0,.9,0,1.3s.1.2.2.2h5.3c.2,0,.2-.1.2-.2S32.3,15.8,32.3,15.4Zm-.6,1.9H27.1c0,.8,0,1.6,0,2.4a.8.8,0,0,0,.3.6l1.8,1.4h.3l.5-.2,1.5-1.2a.9.9,0,0,0,.3-.8c0-.7,0-1.4,0-2S31.8,17.4,31.7,17.3Zm-.6,5.2a1.8,1.8,0,0,0-.1-.5v-.8l-.8.7a1.1,1.1,0,0,1-1.6,0l-.8-.7V23c0,.2.1.2.2.3a4.6,4.6,0,0,0,2.6.1C31.2,23.2,31.2,23.3,31.1,22.5Z"/><path class="d5c2bcb0-ae5f-4811-ad61-dace9c6b9961" d="M37,23.8l-.6-.2-4.1-1.2c-.9-.3-.9-.3-1-1.2a.3.3,0,0,1,.1-.3,1.4,1.4,0,0,0,.6-1.4c0-.2.1-.3.3-.3a1.1,1.1,0,0,0,.8-1.2.9.9,0,0,0-.4-.8c-.1,0-.1-.4-.1-1.6a1.9,1.9,0,0,0-1.9-2H28a1.9,1.9,0,0,0-1.9,1.9c0,.4,0,.9,0,1.3a.6.6,0,0,1-.2.5,1.1,1.1,0,0,0,.5,1.8c.2.1.3.1.3.4a1.4,1.4,0,0,0,.6,1.4.3.3,0,0,1,.1.3c-.1,1-.1,1-1,1.3h-.3l-3.9,1.2c-.2.1-.5,0-.5.4s0,3.7,0,5H37.1c0-1.3,0-3.8,0-5.1S37.1,23.8,37,23.8ZM32.8,18a.7.7,0,0,1-.5.7c-.1.1-.2,0-.2-.1s0-.7,0-1.1.1-.2.3-.1A.7.7,0,0,1,32.8,18Zm-6.2.7c-.1.1-.3-.1-.4-.1a.8.8,0,0,1,.1-1.2c.2-.1.4-.1.3.2s0,.3,0,.5,0,.2,0,.4S26.7,18.7,26.6,18.7Zm-.1-2c0-.4,0-.9,0-1.3a1.6,1.6,0,0,1,1.6-1.6h2.6a1.6,1.6,0,0,1,1.6,1.6c0,.4,0,.9,0,1.3s-.1.2-.2.2H26.7C26.6,16.9,26.5,16.9,26.5,16.7Zm.8,3.7a.8.8,0,0,1-.3-.6c0-.8,0-1.6,0-2.4h4.7c.1.1.1.2.1.3s0,1.4,0,2a.9.9,0,0,1-.3.8l-1.5,1.2-.5.2h-.3Zm3.1,3.1a4.6,4.6,0,0,1-2.6-.1c-.2,0-.2-.1-.2-.3V21.2l.8.7a1.1,1.1,0,0,0,1.6,0l.8-.7V22a1.8,1.8,0,0,1,.1.5C31.2,23.3,31.2,23.2,30.4,23.5Zm-1.9,5.4H23.6c-.3,0-.4-.1-.4-.3s-.3-2.5-.5-3.2-.1-.3-.3-.3-.1.2-.1.4.3,2.5.5,3.2,0,.2-.2.2-.7-1.1-.7-1.8,0-1.7,0-2.6.1-.6.5-.7h.2l3.8-1.2.8-.2c.1.6,0,.7-.6.8H26c-.3.1-.3.2-.1.4h.2l1.1-.2c.2-.1.4.1.5.2l1.4.8-.9.3A2.4,2.4,0,0,0,27,26.8c0,.3,0,.5.4.4h.4c.4,0,.8,1.1.9,1.7Zm7.9,0h-.2c-.2,0-.3,0-.2-.3s.3-2.4.5-3.1.1-.3-.1-.4-.2.1-.3.3-.3,2.5-.5,3.2,0,.3-.3.3H30c.2-.4.3-1.8.8-1.7h.5c.4,0,.5-.1.4-.5a2.4,2.4,0,0,0-1.7-2h-.3l1.4-.8a.7.7,0,0,1,.8-.2l.8.2h.2c.2-.2.1-.3-.1-.4h-.7c-.6-.1-.6-.1-.6-.8l1,.3,3.6,1.1c.7.1.7.1.7.8s0,2.9,0,3.8S36.7,28.9,36.4,28.9Z"/><path class="7e4c5713-c679-4544-b882-10638937a629" d="M21.8,29.1h0Z"/><path class="7e4c5713-c679-4544-b882-10638937a629" d="M37,29.2h0Z"/><path class="9f2adeb6-13ab-46ac-8e69-2e3076b0edca" d="M21.8,29.1h0Z"/><path class="9f2adeb6-13ab-46ac-8e69-2e3076b0edca" d="M37.1,29.1h0Z"/><path class="747ecc56-3499-4741-aef7-28198798fef9" d="M36.8,28.5c0,.3-.1.4-.4.4h-.2c-.2,0-.3,0-.2-.3s.3-2.4.5-3.1.1-.3-.1-.4-.2.1-.3.3-.3,2.5-.5,3.2,0,.3-.3.3H23.6c-.3,0-.4-.1-.4-.3s-.3-2.5-.5-3.2-.1-.3-.3-.3-.1.2-.1.4.3,2.5.5,3.2,0,.2-.2.2-.7-1.1-.7-1.8,0-1.7,0-2.6.1-.6.5-.7h5.2l1.6.6,1.8-.6h4.9c.7.1.7.1.7.8S36.8,27.6,36.8,28.5Z"/><path class="ddd83f78-afba-45b7-a53d-a67a7b431c66" d="M31.5,23.8l-1.1,5.1h-2l-1-5.1h.2l1.6.6,1.8-.6Z"/><path class="d5c2bcb0-ae5f-4811-ad61-dace9c6b9961" d="M32.3,15.4c0,.4,0,.9,0,1.3s-.1.2-.2.2H26.7c-.2,0-.2-.1-.2-.2s0-.9,0-1.3a1.9,1.9,0,0,1,1.8-1h2.1A1.9,1.9,0,0,1,32.3,15.4Zm-2.8.2h-.7c-.3,0-.3.1-.3.4s-.1.6.3.6h1.1c.5,0,.5,0,.5-.5s-.1-.5-.5-.5Z"/><path class="9a4e4154-2845-44a5-9625-7caabb2085c2" d="M29.4,17.3v4.5h-.3l-1.8-1.4a.8.8,0,0,1-.3-.6c0-.8,0-1.6,0-2.4h2.4Z"/><path class="bfc432da-c08f-48be-b36b-792ea0b6a9b3" d="M29.4,21.8q0-2.3,0-4.5h2.3c.1.1.1.2.1.3s0,1.4,0,2a.9.9,0,0,1-.3.8l-1.5,1.2Z"/><path class="d5c2bcb0-ae5f-4811-ad61-dace9c6b9961" d="M32.3,15.4a1.9,1.9,0,0,0-1.8-1H28.4a1.9,1.9,0,0,0-1.8,1,1.6,1.6,0,0,1,1.6-1.6h2.6A1.6,1.6,0,0,1,32.3,15.4Z"/><path class="c6c537d6-b612-4320-a673-ee7f89df3a5e" d="M31.1,22a1.7,1.7,0,0,1,.1.5c.1.7,0,.7-.7.9a4.6,4.6,0,0,1-2.6-.1c-.2,0-.2-.1-.2-.3V22c.4.1.7.5,1,.7a.9.9,0,0,0,1.3,0C30.4,22.5,30.7,22.1,31.1,22Z"/><path class="397e4908-2e55-4677-b233-88f94384db6c" d="M31.1,22c-.4.1-.7.5-1,.7a.9.9,0,0,1-1.3,0c-.3-.2-.6-.6-1-.7v-.8l.8.7a1.1,1.1,0,0,0,1.6,0l.8-.7Z"/><path class="4216d478-7800-4a1d-88c1-9a01ec95e649" d="M25.9,23.8H22.7l3.8-1.2.8-.2c.1.6,0,.7-.6.8H26C25.7,23.5,25.7,23.6,25.9,23.8Z"/><path class="4216d478-7800-4a1d-88c1-9a01ec95e649" d="M36.1,23.9H32.9c.2-.2.1-.3-.1-.4h-.7c-.6-.1-.6-.1-.6-.8l1,.3Z"/><path class="9a4e4154-2845-44a5-9625-7caabb2085c2" d="M26.7,18.1c0,.1,0,.2,0,.4s.1.3-.1.3-.3-.1-.4-.1a.8.8,0,0,1,.1-1.2c.2-.1.3-.1.3.2S26.7,17.9,26.7,18.1Z"/><path class="9a4e4154-2845-44a5-9625-7caabb2085c2" d="M32.8,18a.7.7,0,0,1-.5.7c-.1.1-.2,0-.2-.1s0-.7,0-1.1.1-.2.3-.1A.7.7,0,0,1,32.8,18Z"/><path class="4216d478-7800-4a1d-88c1-9a01ec95e649" d="M27.7,23.8H26.1l1.1-.2C27.4,23.5,27.5,23.7,27.7,23.8Z"/><path class="4216d478-7800-4a1d-88c1-9a01ec95e649" d="M32.7,23.8H31.1a.7.7,0,0,1,.8-.2Z"/><path class="9f2adeb6-13ab-46ac-8e69-2e3076b0edca" d="M31.7,17.3h0Z"/><path class="d5c2bcb0-ae5f-4811-ad61-dace9c6b9961" d="M29.5,17.2s2.4-.1,2.4,1.8V16.2H29.6Z"/><path class="d5c2bcb0-ae5f-4811-ad61-dace9c6b9961" d="M30.1,26.2c-.2,1-.3,2-.5,3h-.4c-.2-1-.3-2-.5-3a.9.9,0,0,1,.4-1.1c.2-.1.2-.3.1-.5a5.3,5.3,0,0,1-.5-.9,3.8,3.8,0,0,0,1.5,0c.2,0,.1.1.1.2l-.4.7c-.1.2-.1.3,0,.4A1,1,0,0,1,30.1,26.2Z"/><path class="d5c2bcb0-ae5f-4811-ad61-dace9c6b9961" d="M20.7,24.7c0-.7,0-.7-.7-.8l-3.6-1.1-1-.3c0,.7,0,.7.6.8h.7c.3.1.3.2.1.4h-.2l-.8-.2a.7.7,0,0,0-.8.2l-1.4.8H14a2.4,2.4,0,0,1,1.7,2c.1.4,0,.5-.4.5h-.5c-.5-.1-.6,1.3-.8,1.7h5.3c.2,0,.2-.2.3-.3s.3-2.5.5-3.2,0-.4.3-.3.1.3.1.4-.3,2.4-.5,3.1,0,.3.2.3h.2c.3,0,.4-.1.4-.4S20.7,25.6,20.7,24.7Zm-4.6-7.2c0,.4,0,.7,0,1.1s.1.2.2.1a.7.7,0,0,0,.5-.7.7.7,0,0,0-.4-.7C16.2,17.3,16.1,17.3,16.1,17.5Zm-5.4-.6H16c.2,0,.2-.1.2-.2s0-.9,0-1.3a1.6,1.6,0,0,0-1.6-1.6H12.1a1.6,1.6,0,0,0-1.6,1.6c0,.4,0,.9,0,1.3S10.5,16.9,10.7,16.9Zm5,.4H11c0,.8,0,1.6,0,2.4a.8.8,0,0,0,.3.6l1.8,1.4h.3l.5-.2,1.5-1.2a.9.9,0,0,0,.3-.8c0-.7,0-1.4,0-2S15.8,17.4,15.7,17.3ZM15,21.2l-.8.7a1.1,1.1,0,0,1-1.6,0l-.8-.7V23c0,.2.1.2.2.3a4.6,4.6,0,0,0,2.6.1c.7-.2.7-.2.7-.9A1.8,1.8,0,0,0,15,22Zm-2,5.4a2.6,2.6,0,0,0-.1,1.9c.3.3.5.3.8.1a2.6,2.6,0,0,0,.1-1.9A.5.5,0,0,0,13,26.6Zm-1.2.6h-.4c-.3,0-.4-.1-.4-.4a2.4,2.4,0,0,1,1.2-1.9l.9-.3-1.4-.8c-.2-.1-.3-.3-.5-.2l-1.1.2H9.8c-.2-.2-.1-.3.1-.4h.7c.6-.1.6-.2.6-.8l-.8.2L6.7,23.9H6.5c-.4,0-.5.3-.5.7s0,1.7,0,2.6,0,1.8.7,1.8.2,0,.2-.2-.3-2.5-.5-3.2-.1-.3.1-.4.2.1.3.3.3,2.5.5,3.2.1.3.4.3h5.1C12.6,28.3,12.2,27.1,11.8,27.2Zm-1.2-8.4c.1-.1,0-.2.1-.3s0-.2,0-.4,0-.3,0-.5-.1-.3-.3-.2a.8.8,0,0,0-.1,1.2C10.3,18.7,10.4,18.8,10.6,18.7Zm5.8-1.4c-.1-.1-.3-.1-.3.1s0,.7,0,1.1.1.2.2.1a.7.7,0,0,0,.5-.7A.7.7,0,0,0,16.4,17.3Zm-5.7,1.1c0-.1,0-.2,0-.4s0-.3,0-.5-.1-.3-.3-.2a.8.8,0,0,0-.1,1.2c.1.1.2.2.4.1S10.6,18.5,10.6,18.4Zm10.1,6.3c0-.7,0-.7-.7-.8l-3.6-1.1-1-.3c0,.7,0,.7.6.8h.7c.3.1.3.2.1.4h-.2l-.8-.2a.7.7,0,0,0-.8.2l-1.4.8H14a2.4,2.4,0,0,1,1.7,2c.1.4,0,.5-.4.5h-.5c-.5-.1-.6,1.3-.8,1.7h5.3c.2,0,.2-.2.3-.3s.3-2.5.5-3.2,0-.4.3-.3.1.3.1.4-.3,2.4-.5,3.1,0,.3.2.3h.2c.3,0,.4-.1.4-.4S20.7,25.6,20.7,24.7Zm-8.9,2.5h-.4c-.3,0-.4-.1-.4-.4a2.4,2.4,0,0,1,1.2-1.9l.9-.3-1.4-.8c-.2-.1-.3-.3-.5-.2l-1.1.2H9.8c-.2-.2-.1-.3.1-.4h.7c.6-.1.6-.2.6-.8l-.8.2L6.7,23.9H6.5c-.4,0-.5.3-.5.7s0,1.7,0,2.6,0,1.8.7,1.8.2,0,.2-.2-.3-2.5-.5-3.2-.1-.3.1-.4.2.1.3.3.3,2.5.5,3.2.1.3.4.3h5.1C12.6,28.3,12.2,27.1,11.8,27.2Zm4.5-11.8a1.6,1.6,0,0,0-1.6-1.6H12.1a1.6,1.6,0,0,0-1.6,1.6c0,.4,0,.9,0,1.3s.1.2.2.2H16c.2,0,.2-.1.2-.2S16.3,15.8,16.2,15.4Zm-.6,1.9H11c0,.8,0,1.6,0,2.4a.8.8,0,0,0,.3.6l1.8,1.4h.3l.5-.2,1.5-1.2a.9.9,0,0,0,.3-.8c0-.7,0-1.4,0-2S15.8,17.4,15.7,17.3Zm-.6,5.2A1.8,1.8,0,0,0,15,22v-.8l-.8.7a1.1,1.1,0,0,1-1.6,0l-.8-.7V23c0,.2.1.2.2.3a4.6,4.6,0,0,0,2.6.1C15.1,23.2,15.1,23.3,15.1,22.5Z"/><path class="d5c2bcb0-ae5f-4811-ad61-dace9c6b9961" d="M20.9,23.8l-.6-.2-4.1-1.2c-.9-.3-.9-.3-1-1.2a.3.3,0,0,1,.1-.3,1.4,1.4,0,0,0,.6-1.4c0-.2.1-.3.3-.3a1.1,1.1,0,0,0,.8-1.2.9.9,0,0,0-.4-.8c-.1,0-.1-.4-.1-1.6a1.9,1.9,0,0,0-1.9-2H12a1.9,1.9,0,0,0-1.9,1.9c0,.4,0,.9,0,1.3a.6.6,0,0,1-.2.5,1.1,1.1,0,0,0,.5,1.8c.2.1.3.1.3.4a1.4,1.4,0,0,0,.6,1.4.3.3,0,0,1,.1.3c-.1,1-.1,1-1,1.3h-.3L6.2,23.7c-.2.1-.5,0-.5.4s0,3.7,0,5H21.1c0-1.3,0-3.8,0-5.1S21.1,23.8,20.9,23.8ZM16.8,18a.7.7,0,0,1-.5.7c-.1.1-.2,0-.2-.1s0-.7,0-1.1.1-.2.3-.1A.7.7,0,0,1,16.8,18Zm-6.2.7c-.1.1-.3-.1-.4-.1a.8.8,0,0,1,.1-1.2c.2-.1.4-.1.3.2s0,.3,0,.5,0,.2,0,.4S10.7,18.7,10.6,18.7Zm-.1-2c0-.4,0-.9,0-1.3a1.6,1.6,0,0,1,1.6-1.6h2.6a1.6,1.6,0,0,1,1.6,1.6c0,.4,0,.9,0,1.3s-.1.2-.2.2H10.7C10.5,16.9,10.5,16.9,10.5,16.7Zm.8,3.7a.8.8,0,0,1-.3-.6c0-.8,0-1.6,0-2.4h4.7c.1.1.1.2.1.3s0,1.4,0,2a.9.9,0,0,1-.3.8l-1.5,1.2-.5.2h-.3Zm3.1,3.1a4.6,4.6,0,0,1-2.6-.1c-.2,0-.2-.1-.2-.3V21.2l.8.7a1.1,1.1,0,0,0,1.6,0l.8-.7V22a1.8,1.8,0,0,1,.1.5C15.1,23.3,15.1,23.2,14.4,23.5Zm-1.9,5.4H7.6c-.3,0-.4-.1-.4-.3s-.3-2.5-.5-3.2-.1-.3-.3-.3-.1.2-.1.4.3,2.5.5,3.2,0,.2-.2.2S6,27.8,6,27.1s0-1.7,0-2.6.1-.6.5-.7h.2l3.8-1.2.8-.2c.1.6,0,.7-.6.8H10c-.3.1-.3.2-.1.4H10l1.1-.2c.2-.1.4.1.5.2l1.4.8-.9.3A2.4,2.4,0,0,0,11,26.8c0,.3,0,.5.4.4h.4c.4,0,.8,1.1.9,1.7Zm7.9,0h-.2c-.2,0-.3,0-.2-.3s.3-2.4.5-3.1.1-.3-.1-.4-.2.1-.3.3-.3,2.5-.5,3.2,0,.3-.3.3H14c.2-.4.3-1.8.8-1.7h.5c.4,0,.5-.1.4-.5a2.4,2.4,0,0,0-1.7-2h-.3l1.4-.8a.7.7,0,0,1,.8-.2l.8.2h.2c.2-.2.1-.3-.1-.4h-.7c-.6-.1-.6-.1-.6-.8l1,.3L20,23.9c.7.1.7.1.7.8s0,2.9,0,3.8S20.6,28.9,20.3,28.9Z"/><path class="7e4c5713-c679-4544-b882-10638937a629" d="M5.7,29.1h0Z"/><path class="7e4c5713-c679-4544-b882-10638937a629" d="M20.9,29.2h0Z"/><path class="9f2adeb6-13ab-46ac-8e69-2e3076b0edca" d="M5.7,29.1h0Z"/><path class="9f2adeb6-13ab-46ac-8e69-2e3076b0edca" d="M21.1,29.1h0Z"/><path class="747ecc56-3499-4741-aef7-28198798fef9" d="M20.7,28.5c0,.3-.1.4-.4.4h-.2c-.2,0-.3,0-.2-.3s.3-2.4.5-3.1.1-.3-.1-.4-.2.1-.3.3-.3,2.5-.5,3.2,0,.3-.3.3H7.6c-.3,0-.4-.1-.4-.3s-.3-2.5-.5-3.2-.1-.3-.3-.3-.1.2-.1.4.3,2.5.5,3.2,0,.2-.2.2S6,27.8,6,27.1s0-1.7,0-2.6.1-.6.5-.7h5.2l1.6.6,1.8-.6H20c.7.1.7.1.7.8S20.7,27.6,20.7,28.5Z"/><path class="ddd83f78-afba-45b7-a53d-a67a7b431c66" d="M15.5,23.8l-1.1,5.1h-2l-1-5.1h.2l1.6.6,1.8-.6Z"/><path class="d5c2bcb0-ae5f-4811-ad61-dace9c6b9961" d="M16.2,15.4c0,.4,0,.9,0,1.3s-.1.2-.2.2H10.7c-.2,0-.2-.1-.2-.2s0-.9,0-1.3a1.9,1.9,0,0,1,1.8-1h2.1A1.9,1.9,0,0,1,16.2,15.4Zm-2.8.2h-.7c-.3,0-.3.1-.3.4s-.1.6.3.6h1.1c.5,0,.5,0,.5-.5s-.1-.5-.5-.5Z"/><path class="9a4e4154-2845-44a5-9625-7caabb2085c2" d="M13.4,17.3v4.5h-.3l-1.8-1.4a.8.8,0,0,1-.3-.6c0-.8,0-1.6,0-2.4h2.4Z"/><path class="bfc432da-c08f-48be-b36b-792ea0b6a9b3" d="M13.4,21.8q0-2.3,0-4.5h2.3c.1.1.1.2.1.3s0,1.4,0,2a.9.9,0,0,1-.3.8l-1.5,1.2Z"/><path class="d5c2bcb0-ae5f-4811-ad61-dace9c6b9961" d="M16.2,15.4a1.9,1.9,0,0,0-1.8-1H12.3a1.9,1.9,0,0,0-1.8,1,1.6,1.6,0,0,1,1.6-1.6h2.6A1.6,1.6,0,0,1,16.2,15.4Z"/><path class="c6c537d6-b612-4320-a673-ee7f89df3a5e" d="M15,22a1.7,1.7,0,0,1,.1.5c.1.7,0,.7-.7.9a4.6,4.6,0,0,1-2.6-.1c-.2,0-.2-.1-.2-.3V22c.4.1.7.5,1,.7a.9.9,0,0,0,1.3,0C14.4,22.5,14.6,22.1,15,22Z"/><path class="397e4908-2e55-4677-b233-88f94384db6c" d="M15,22c-.4.1-.7.5-1,.7a.9.9,0,0,1-1.3,0c-.3-.2-.6-.6-1-.7v-.8l.8.7a1.1,1.1,0,0,0,1.6,0l.8-.7Z"/><path class="4216d478-7800-4a1d-88c1-9a01ec95e649" d="M9.8,23.8H6.7l3.8-1.2.8-.2c.1.6,0,.7-.6.8H10C9.7,23.5,9.7,23.6,9.8,23.8Z"/><path class="4216d478-7800-4a1d-88c1-9a01ec95e649" d="M20,23.9H16.9c.2-.2.1-.3-.1-.4h-.7c-.6-.1-.6-.1-.6-.8l1,.3Z"/><path class="9a4e4154-2845-44a5-9625-7caabb2085c2" d="M10.6,18.1c0,.1,0,.2,0,.4s.1.3-.1.3-.3-.1-.4-.1a.8.8,0,0,1,.1-1.2c.2-.1.3-.1.3.2S10.6,17.9,10.6,18.1Z"/><path class="9a4e4154-2845-44a5-9625-7caabb2085c2" d="M16.8,18a.7.7,0,0,1-.5.7c-.1.1-.2,0-.2-.1s0-.7,0-1.1.1-.2.3-.1A.7.7,0,0,1,16.8,18Z"/><path class="4216d478-7800-4a1d-88c1-9a01ec95e649" d="M11.7,23.8H10l1.1-.2C11.4,23.5,11.5,23.7,11.7,23.8Z"/><path class="4216d478-7800-4a1d-88c1-9a01ec95e649" d="M16.7,23.8H15.1a.7.7,0,0,1,.8-.2Z"/><path class="9f2adeb6-13ab-46ac-8e69-2e3076b0edca" d="M15.7,17.3h0Z"/><path class="d5c2bcb0-ae5f-4811-ad61-dace9c6b9961" d="M13.4,17.2s2.4-.1,2.4,1.8V16.2H13.5Z"/><path class="d5c2bcb0-ae5f-4811-ad61-dace9c6b9961" d="M14.1,26.2c-.2,1-.3,2-.5,3h-.4c-.2-1-.3-2-.5-3a.9.9,0,0,1,.4-1.1c.2-.1.2-.3.1-.5a5.3,5.3,0,0,1-.5-.9,3.8,3.8,0,0,0,1.5,0c.2,0,.1.1.1.2l-.4.7c-.1.2-.1.3,0,.4A1,1,0,0,1,14.1,26.2Z"/><polygon class="071c907b-6392-4aba-b3fa-bfd15a709f4f" points="26.4 21 32.3 23.9 32.3 33.4 11 33.4 11 24.1 16.4 20.9 26.4 21"/><path class="d5c2bcb0-ae5f-4811-ad61-dace9c6b9961" d="M31,25.3c0-.9,0-.9-.9-1l-4.5-1.4-1.2-.4c0,.9,0,.9.8,1l.9.2c.3.1.4.2.2.5H26l-1.1-.3a.9.9,0,0,0-1,.2l-1.7,1,.4.2a3,3,0,0,1,2.2,2.5c.1.5,0,.6-.6.6h-.6c-.6-.1-.8,1.7-1,2.1h6.6c.3,0,.3-.2.4-.4s.4-3.1.6-4,.1-.5.3-.4.1.3.1.5-.4,3.1-.6,3.9,0,.4.3.3h.3c.4.1.5-.1.5-.5S31,26.4,31,25.3Zm-5.8-9c0,.5,0,.9,0,1.4s.1.3.3.2a.9.9,0,0,0,.6-.9.9.9,0,0,0-.5-.8C25.4,16,25.2,15.9,25.2,16.3Zm-6.8-.7h6.7c.2,0,.3-.1.3-.3s0-1.1,0-1.6a2,2,0,0,0-2-2H20.2a2,2,0,0,0-2,2c0,.6,0,1.1,0,1.6S18.2,15.6,18.5,15.6Zm6.2.4H18.9v.2c0,1,0,2,0,3a.9.9,0,0,0,.4.7l2.2,1.8c.2.1.2.1.4,0a.7.7,0,0,0,.6-.2l1.9-1.6a1.1,1.1,0,0,0,.4-1c0-.9,0-1.7,0-2.6S24.8,16.1,24.7,16Zm-.8,4.9-1.1.8a1.4,1.4,0,0,1-2,0l-1.1-.8v2.3c0,.2.1.3.3.3a5.7,5.7,0,0,0,3.3.2c.9-.3.9-.2.9-1.2a2.3,2.3,0,0,0-.1-.7Zm-2.5,6.8a3.2,3.2,0,0,0-.1,2.4c.3.3.7.4.9.1a3.3,3.3,0,0,0,.1-2.4A.6.6,0,0,0,21.3,27.7Zm-1.5.7h-.6c-.4.1-.5-.2-.5-.5a3,3,0,0,1,1.5-2.3l1.1-.4-1.8-1c-.2-.1-.4-.3-.6-.3l-1.4.3h-.3c-.2-.2-.2-.4.2-.5l.9-.2c.7-.1.8-.2.7-1l-1,.3-4.7,1.5h-.3c-.5.1-.6.3-.6.8s0,2.1,0,3.2,0,2.2.8,2.2.3-.1.2-.3-.4-3.1-.6-4-.2-.4.1-.5.3.2.3.3.4,3.1.6,4,.2.4.5.4H21C20.8,29.8,20.3,28.4,19.8,28.4ZM18.3,17.8c.2-.1.1-.3.1-.4s0-.3,0-.5,0-.4,0-.6-.2-.4-.4-.2a.9.9,0,0,0-.1,1.5C18,17.8,18.1,17.9,18.3,17.8Zm7.3-1.8c-.2-.1-.4-.1-.4.2s0,.9,0,1.4.1.3.3.2a.9.9,0,0,0,.6-.9A.9.9,0,0,0,25.6,16.1Zm-7.2,1.3c0-.2,0-.3,0-.5s0-.4,0-.6-.2-.4-.4-.2a.9.9,0,0,0-.1,1.5c.1.1.3.2.4.2S18.4,17.5,18.4,17.4ZM31,25.3c0-.9,0-.9-.9-1l-4.5-1.4-1.2-.4c0,.9,0,.9.8,1l.9.2c.3.1.4.2.2.5H26l-1.1-.3a.9.9,0,0,0-1,.2l-1.7,1,.4.2a3,3,0,0,1,2.2,2.5c.1.5,0,.6-.6.6h-.6c-.6-.1-.8,1.7-1,2.1h6.6c.3,0,.3-.2.4-.4s.4-3.1.6-4,.1-.5.3-.4.1.3.1.5-.4,3.1-.6,3.9,0,.4.3.3h.3c.4.1.5-.1.5-.5S31,26.4,31,25.3ZM19.8,28.4h-.6c-.4.1-.5-.2-.5-.5a3,3,0,0,1,1.5-2.3l1.1-.4-1.8-1c-.2-.1-.4-.3-.6-.3l-1.4.3h-.3c-.2-.2-.2-.4.2-.5l.9-.2c.7-.1.8-.2.7-1l-1,.3-4.7,1.5h-.3c-.5.1-.6.3-.6.8s0,2.1,0,3.2,0,2.2.8,2.2.3-.1.2-.3-.4-3.1-.6-4-.2-.4.1-.5.3.2.3.3.4,3.1.6,4,.2.4.5.4H21C20.8,29.8,20.3,28.4,19.8,28.4Zm5.6-14.8a2,2,0,0,0-2-2H20.2a2,2,0,0,0-2,2c0,.6,0,1.1,0,1.6s.1.3.3.3h6.7c.2,0,.3-.1.3-.3S25.4,14.2,25.4,13.6ZM24.7,16H18.9v.2c0,1,0,2,0,3a.9.9,0,0,0,.4.7l2.2,1.8c.2.1.2.1.4,0a.7.7,0,0,0,.6-.2l1.9-1.6a1.1,1.1,0,0,0,.4-1c0-.9,0-1.7,0-2.6S24.8,16.1,24.7,16ZM24,22.6a2.3,2.3,0,0,0-.1-.7v-1l-1.1.8a1.4,1.4,0,0,1-2,0l-1.1-.8v2.3c0,.2.1.3.3.3a5.7,5.7,0,0,0,3.3.2C24,23.4,24,23.5,24,22.6Z"/><path class="d5c2bcb0-ae5f-4811-ad61-dace9c6b9961" d="M31.3,24.1l-.7-.2-5.1-1.5c-1.2-.3-1.2-.4-1.2-1.6a.4.4,0,0,1,.2-.4,1.7,1.7,0,0,0,.8-1.7c0-.3.1-.4.3-.4a1.4,1.4,0,0,0,1-1.5,1.2,1.2,0,0,0-.5-1c-.1-.1-.1-.5-.1-2.1a2.4,2.4,0,0,0-2.3-2.5H20a2.4,2.4,0,0,0-2.3,2.4c0,.6,0,1.1,0,1.7a.8.8,0,0,1-.3.6,1.4,1.4,0,0,0,.6,2.3c.3.1.4.2.3.5a1.7,1.7,0,0,0,.8,1.7.4.4,0,0,1,.2.4c-.1,1.2-.1,1.2-1.2,1.6h-.4L12.7,24c-.2.1-.7,0-.7.5s0,4.7,0,6.3H31.5c0-1.6,0-4.7,0-6.3S31.5,24.1,31.3,24.1Zm-5.2-7.2a.9.9,0,0,1-.6.9c-.2.1-.3,0-.3-.2s0-.9,0-1.4.2-.3.4-.2A.9.9,0,0,1,26.1,16.9Zm-7.8.9c-.2.1-.3-.1-.4-.2a.9.9,0,0,1,.1-1.5c.2-.1.4-.2.4.2s0,.4,0,.6,0,.3,0,.5S18.4,17.7,18.3,17.8Zm-.1-2.5c0-.5,0-1.1,0-1.6a2,2,0,0,1,2-2h3.2a2,2,0,0,1,2,2c0,.6,0,1.1,0,1.6s-.1.3-.3.3H18.5C18.2,15.6,18.2,15.5,18.2,15.3Zm1.1,4.6a.9.9,0,0,1-.4-.7c0-1,0-2,0-3V16h5.8c.1.1.1.3.1.4s0,1.7,0,2.6a1.1,1.1,0,0,1-.4,1l-1.9,1.6a.7.7,0,0,1-.6.2c-.1.1-.2.1-.4,0Zm3.9,3.9a5.7,5.7,0,0,1-3.3-.2c-.2-.1-.3-.1-.3-.3V20.9l1.1.8a1.4,1.4,0,0,0,2,0l1.1-.8v1a2.3,2.3,0,0,1,.1.7C24,23.5,24,23.4,23.1,23.7Zm-2.4,6.8H14.5c-.3,0-.4-.1-.5-.4s-.4-3.1-.6-4-.1-.4-.3-.3-.2.3-.1.5.4,3.1.6,4,0,.3-.2.3-.8-1.4-.8-2.2,0-2.1,0-3.2.1-.8.6-.8h.3l4.7-1.5,1-.3c.1.8,0,.9-.7,1l-.9.2c-.3.1-.4.2-.2.5h.3l1.4-.3c.3-.1.5.1.6.3l1.8,1-1.1.4a3,3,0,0,0-1.5,2.3c0,.4,0,.6.5.5h.6c.5,0,1,1.4,1.1,2.1Zm9.9,0h-.3c-.3,0-.3,0-.3-.3s.4-3.1.6-3.9.2-.4-.1-.5-.3.2-.3.4-.4,3.1-.6,4-.1.4-.4.4H22.6c.2-.5.4-2.3,1-2.1h.6c.5,0,.6-.1.6-.6a3,3,0,0,0-2.2-2.5l-.4-.2,1.7-1a.9.9,0,0,1,1-.2l1.1.3h.3c.2-.2.2-.4-.2-.5l-.9-.2c-.8-.1-.8-.1-.8-1l1.2.4,4.5,1.4c.9.1.9.1.9,1s0,3.7,0,4.8S30.9,30.6,30.5,30.6Z"/><path class="7e4c5713-c679-4544-b882-10638937a629" d="M12.2,30.9h0Z"/><path class="7e4c5713-c679-4544-b882-10638937a629" d="M31.3,31h0Z"/><path class="9f2adeb6-13ab-46ac-8e69-2e3076b0edca" d="M12.2,30.9h0Z"/><path class="9f2adeb6-13ab-46ac-8e69-2e3076b0edca" d="M31.5,30.9h0Z"/><path class="747ecc56-3499-4741-aef7-28198798fef9" d="M31.1,30.1c0,.4-.1.6-.5.5h-.3c-.3,0-.3,0-.3-.3s.4-3.1.6-3.9.2-.4-.1-.5-.3.2-.3.4-.4,3.1-.6,4-.1.4-.4.4H14.5c-.3,0-.4-.1-.5-.4s-.4-3.1-.6-4-.1-.4-.3-.3-.2.3-.1.5.4,3.1.6,4,0,.3-.2.3-.8-1.4-.8-2.2,0-2.1,0-3.2.1-.8.6-.8h.3a38.3,38.3,0,0,0,3.9-.1h2.3l2,.8c.7-.3,1.8-.5,2.3-.8h2.3a36.8,36.8,0,0,0,3.9.1c.9.1.9.1.9,1S31,28.9,31.1,30.1Z"/><path class="ddd83f78-afba-45b7-a53d-a67a7b431c66" d="M24.5,24.2l-1.4,6.4H20.6l-1.3-6.4h.3l2,.8a23.5,23.5,0,0,0,2.3-.8Z"/><path class="d5c2bcb0-ae5f-4811-ad61-dace9c6b9961" d="M25.4,13.6c0,.5,0,1.1,0,1.6s-.1.3-.3.3H18.5c-.2,0-.3-.1-.3-.3s0-1.1,0-1.6a2.4,2.4,0,0,1,2.3-1.2h2.6A2.4,2.4,0,0,1,25.4,13.6Zm-3.5.3H21c-.4,0-.4.2-.4.5s-.2.7.4.7h1.3c.6,0,.6,0,.6-.6s-.1-.7-.6-.6Z"/><path class="9a4e4154-2845-44a5-9625-7caabb2085c2" d="M21.8,16v5.7c-.1.1-.2.1-.4,0l-2.2-1.8a.9.9,0,0,1-.4-.7c0-1,0-2,0-3V16h2.9Z"/><path class="bfc432da-c08f-48be-b36b-792ea0b6a9b3" d="M21.8,21.7q0-2.8,0-5.7h2.8c.1.1.1.3.1.4s0,1.7,0,2.6a1.1,1.1,0,0,1-.4,1l-1.9,1.6A.7.7,0,0,1,21.8,21.7Z"/><path class="d5c2bcb0-ae5f-4811-ad61-dace9c6b9961" d="M25.4,13.6a2.4,2.4,0,0,0-2.3-1.2H20.5a2.4,2.4,0,0,0-2.3,1.2,2,2,0,0,1,2-2h3.2A2,2,0,0,1,25.4,13.6Z"/><path class="c6c537d6-b612-4320-a673-ee7f89df3a5e" d="M23.9,21.9a2.2,2.2,0,0,1,.1.7c.1.9,0,.9-.9,1.2a5.7,5.7,0,0,1-3.3-.2c-.2,0-.3-.1-.3-.3V21.9c.5.2.8.6,1.3.9a1.2,1.2,0,0,0,1.6,0C23,22.5,23.4,22.1,23.9,21.9Z"/><path class="397e4908-2e55-4677-b233-88f94384db6c" d="M23.9,21.9c-.5.2-.8.6-1.3.9a1.2,1.2,0,0,1-1.6,0c-.4-.3-.7-.8-1.3-.9v-1l1.1.8a1.4,1.4,0,0,0,2,0l1.1-.8Z"/><path class="4216d478-7800-4a1d-88c1-9a01ec95e649" d="M17.4,24.2a38.8,38.8,0,0,1-3.9.1l4.7-1.5,1-.3c.1.8,0,.9-.7,1l-.9.2C17.2,23.8,17.1,23.9,17.4,24.2Z"/><path class="4216d478-7800-4a1d-88c1-9a01ec95e649" d="M30.2,24.3a38.8,38.8,0,0,1-3.9-.1c.2-.2.2-.4-.2-.5l-.9-.2c-.8-.1-.8-.1-.8-1l1.2.4Z"/><path class="9a4e4154-2845-44a5-9625-7caabb2085c2" d="M18.4,17c0,.2,0,.3,0,.5s.1.3-.1.4-.3-.1-.4-.2a1,1,0,0,1,.1-1.5c.2-.1.4-.2.4.2S18.4,16.7,18.4,17Z"/><path class="9a4e4154-2845-44a5-9625-7caabb2085c2" d="M26.1,16.9a.9.9,0,0,1-.6.9c-.2.1-.3,0-.3-.2s0-.9,0-1.4.2-.3.4-.2A.9.9,0,0,1,26.1,16.9Z"/><path class="4216d478-7800-4a1d-88c1-9a01ec95e649" d="M19.6,24.2h-2l1.4-.3C19.3,23.8,19.4,24,19.6,24.2Z"/><path class="4216d478-7800-4a1d-88c1-9a01ec95e649" d="M26,24.2h-2a.9.9,0,0,1,1-.2Z"/><path class="9f2adeb6-13ab-46ac-8e69-2e3076b0edca" d="M24.7,16h0Z"/><path class="d5c2bcb0-ae5f-4811-ad61-dace9c6b9961" d="M21.9,15.9s3-.1,3,2.2V14.6H22Z"/><path class="d5c2bcb0-ae5f-4811-ad61-dace9c6b9961" d="M22.7,27.2c-.2,1.2-.4,2.5-.6,3.7h-.5c-.2-1.3-.4-2.5-.6-3.8a1.2,1.2,0,0,1,.5-1.3c.2-.2.2-.4.1-.6a6.6,6.6,0,0,1-.7-1.1,4.8,4.8,0,0,0,1.9.1c.2,0,.2.1.1.2l-.6.9c-.2.2-.2.4,0,.6A1.2,1.2,0,0,1,22.7,27.2Z"/></g></g></svg>