<svg xmlns="http://www.w3.org/2000/svg" viewBox="0 0 36.1 31.5"><defs><style>.ef827992-4a04-40b6-896b-941f8a1efe72{fill:#333;}.ef50eb47-d349-4955-9292-beb73c3928c2{fill:gray;}.c2d0f630-d3a1-4fa0-91e2-c4d8ad589876{fill:#f79361;}.\34 ecfdcf1-48a0-46aa-8c7b-78dfb592bd7a{fill:#f96c46;}.ddd38e5d-393d-4a0d-a5d2-18e537c6c2dc{fill:#89ff00;}.\39 2063bc3-18e4-468b-9c08-f4db6d95e341{fill:#5baa00;}.f463f2f2-c6b6-41c3-93ae-bf6abfa524d6{fill:#2f6c8e;}.\38 052654c-b54e-4a5b-aa19-3a9fef43d27f{fill:#2b4063;}.ca0c50e4-6412-449d-b19f-0c24c91df325{fill:#fff;}.\31 ba72ead-1143-46ec-b285-c1fb4c066342{fill:#94aab2;}</style></defs><title>icono-senior</title><g id="d936feae-57bf-47f8-accb-c801a2ea0ea9" data-name="Capa 2"><g id="c62cacf2-b0af-429c-a284-0cd604d3529d" data-name="Editar cosas"><path class="ef827992-4a04-40b6-896b-941f8a1efe72" d="M27.5,11.3l-.3-.2-.2-.5a.4.4,0,0,1,.1-.4L28.4,9l.4-.2a3.8,3.8,0,0,0,1.1-2.1,1.3,1.3,0,0,0,0-.3c0-.1,0-.2,0-.3a3,3,0,0,1,.6-1.5,3.5,3.5,0,0,1,2.8-1.6h.1a2.4,2.4,0,0,1,1.9.8A2.4,2.4,0,0,1,35.7,6a3.6,3.6,0,0,1-3.4,2.8h-.5a3.6,3.6,0,0,0-2.1.7h-.2a.5.5,0,0,1-.2.3l-.5.4-1,.9h-.3Zm3-3.3h0Zm2.8-3.9a2.5,2.5,0,0,0-2.3,2,1.4,1.4,0,0,0,1.4,1.7,2.5,2.5,0,0,0,2.3-1.9,1.5,1.5,0,0,0-.2-1.3,1.4,1.4,0,0,0-1.2-.5v0Z"/><path class="ef50eb47-d349-4955-9292-beb73c3928c2" d="M33.4,3.5a1.9,1.9,0,0,1,2,2.4,3.2,3.2,0,0,1-3.1,2.5h-.5a4,4,0,0,0-2.3.8c-.1.1-.3.2-.3.4H29l-1.4,1.3-.2-.5,1.3-1.2H29a4.1,4.1,0,0,0,1.2-2.3,4.4,4.4,0,0,0,0-.6,2.7,2.7,0,0,1,.5-1.3,3.2,3.2,0,0,1,2.5-1.4h.1m-1,4.7h0A2.9,2.9,0,0,0,35.1,6a1.8,1.8,0,0,0-1.8-2.3h0A2.9,2.9,0,0,0,30.6,6a1.7,1.7,0,0,0,1.8,2.1m-2.8.6h.1a5,5,0,0,1,1.7-.5,1.9,1.9,0,0,1-1-1.1,4.9,4.9,0,0,1-.7,1.6h0m3.8-6h-.1a3.9,3.9,0,0,0-3.1,1.7,3.4,3.4,0,0,0-.6,1.7c0,.1,0,.2,0,.3a1.3,1.3,0,0,1,0,.2,3.4,3.4,0,0,1-.9,1.8l-.5.3L26.8,9.9a.7.7,0,0,0-.2.9l.2.5a.7.7,0,0,0,.5.4h.2l.5-.2,1-.8.5-.4h0a.9.9,0,0,0,.3-.4h0a3.2,3.2,0,0,1,1.9-.6h.5a4,4,0,0,0,3.8-3.1,2.8,2.8,0,0,0-.5-2.4,2.7,2.7,0,0,0-2.2-1Zm-1,5.4V7.4a1.1,1.1,0,0,1-.8-.4,1.1,1.1,0,0,1-.2-.9,2.1,2.1,0,0,1,1.9-1.7h0a1.1,1.1,0,0,1,.9.4,1.1,1.1,0,0,1,.2,1,2.1,2.1,0,0,1-1.9,1.6v.8Z"/><path class="c2d0f630-d3a1-4fa0-91e2-c4d8ad589876" d="M18.8,7.9a2.4,2.4,0,0,1-1.7-4.1A2.4,2.4,0,0,1,18.8,3a2.4,2.4,0,0,1,.1,4.9Z"/><path class="4ecfdcf1-48a0-46aa-8c7b-78dfb592bd7a" d="M18.8,3.5a1.9,1.9,0,0,1,1.9,1.9,1.9,1.9,0,0,1-1.9,1.9h0a1.9,1.9,0,0,1,0-3.9h0m0-1h0a2.9,2.9,0,0,0-2,.9,2.9,2.9,0,0,0,2.1,5h.1a2.9,2.9,0,0,0-.1-5.9Z"/><path class="ddd38e5d-393d-4a0d-a5d2-18e537c6c2dc" d="M30.3,2.8a1.1,1.1,0,0,1-1.1-1.1,1.2,1.2,0,0,1,.3-.8,1.1,1.1,0,0,1,.8-.3,1.1,1.1,0,0,1,1.2,1.1,1.1,1.1,0,0,1-.3.8,1.2,1.2,0,0,1-.8.4Z"/><path class="92063bc3-18e4-468b-9c08-f4db6d95e341" d="M30.3,1h0a.6.6,0,0,1,.6.6.6.6,0,0,1-.6.7h0a.6.6,0,0,1,0-1.3m0-1a1.6,1.6,0,0,0-1.1.5,1.7,1.7,0,0,0-.5,1.2,1.6,1.6,0,0,0,1.6,1.6,1.7,1.7,0,0,0,1.2-.5A1.6,1.6,0,0,0,32,1.6,1.6,1.6,0,0,0,30.4,0Z"/><path class="f463f2f2-c6b6-41c3-93ae-bf6abfa524d6" d="M2.4,31a1.8,1.8,0,0,1-1.1-.4,2.1,2.1,0,0,1-.7-1.2,1.8,1.8,0,0,1,.7-1.9l2.2-1.7,2.7-2.1.3-.4,3.6-6.7a.5.5,0,0,1,.5-.3h.2L16,18.2l.3.3,2.1,1.9,1.3,1.2a1.8,1.8,0,0,1,.6,1.9l-.3,1.2v.5l-1.1,4.4A1.7,1.7,0,0,1,17,31h-.7A1.8,1.8,0,0,1,15,28.7l1.3-5.1-.6-.5-2.9-2.7-.5.9-1.8,2.9-.4.6-.5.8-.5.5L3.7,30.5A2,2,0,0,1,2.4,31Z"/><path class="8052654c-b54e-4a5b-aa19-3a9fef43d27f" d="M10.6,16.8l5.2,1.9h.1l3.4,3.1a1.4,1.4,0,0,1,.4,1.4L19.3,25l-1.1,4.4a1.2,1.2,0,0,1-1.2,1h-.6a1.3,1.3,0,0,1-.9-1.6l1.3-5.2a.3.3,0,0,0-.1-.3l-3.8-3.5h-.2l-.2.2-2.5,4-.8,1.3-.4.4L3.4,30.1a1.6,1.6,0,0,1-1,.4,1.3,1.3,0,0,1-.8-.3,1.6,1.6,0,0,1-.6-.9,1.3,1.3,0,0,1,.6-1.4l4.9-3.9.4-.5,3.6-6.7m0-1a1,1,0,0,0-.9.5L6.1,23l-.2.2L3.1,25.4,1,27.1a2.3,2.3,0,0,0-.9,2.4A2.6,2.6,0,0,0,1,31a2.3,2.3,0,0,0,1.5.6A2.5,2.5,0,0,0,4,30.9l5.5-4.4.6-.7.5-.8.3-.6,1.8-2.9.2-.3,2.4,2.2.4.4-1.2,4.8a2.2,2.2,0,0,0,1.6,2.8H17a2.2,2.2,0,0,0,2.2-1.8l.5-2.2.5-2.2v-.6l.3-1.2a2.4,2.4,0,0,0-.7-2.4L18.7,20l-2.1-1.9-.5-.4-5.2-1.9Z"/><path class="ca0c50e4-6412-449d-b19f-0c24c91df325" d="M15.8,17.2h-.2l-3.9-1.4-.3-.3a.5.5,0,0,1,0-.4l2-3.7H12.4l-.4.2-1.4,1.8-.2.2-.3.4a1.2,1.2,0,0,1-1,.6,1.7,1.7,0,0,1-1.3-.6,1,1,0,0,1-.2-.4,1.1,1.1,0,0,1,.1-1.1l2.3-3.1a1.4,1.4,0,0,1,.8-.5l4-1.1h1l3.5,1.2.7.4.3.2.3.2,1.3.7h.4l1.7-.3,1.1-.2h.3a1.2,1.2,0,0,1,.8.3,1.8,1.8,0,0,1,.3.6v.5A1.3,1.3,0,0,1,25.8,13l-2.1.4-1.7.3h-.6L20.1,13l-.9-.5-.5-.2-.4.7-.4.6-.8,1.6-.6,1.2-.2.4a.5.5,0,0,1-.1.3Z"/><path class="1ba72ead-1143-46ec-b285-c1fb4c066342" d="M15.2,8.5h.4l3.5,1.2,1,.5,1.6.9h.8l2.9-.6h.2l.5.2.4.8h0a.8.8,0,0,1-.7.9l-1.4.3-2.4.5h-.3l-.8-.5L19.4,12l-.9-.5h-.2c-.3.6-.6,1.1-.9,1.7l-1.3,2.5-.3.6c0,.1-.1.1,0,.2l-3.9-1.4L13,13.2l1.4-2.6-1.5.4-.6.2a1.1,1.1,0,0,0-.7.4l-1.4,1.8-.5.7a.7.7,0,0,1-.6.3h0a1.2,1.2,0,0,1-.9-.5c-.1-.1-.1-.3-.2-.4a.6.6,0,0,1,.1-.6l2.3-3.1.5-.3,4-1.1h.3m0-1h-.5l-2,.5-2,.5a1.9,1.9,0,0,0-1,.7L7.5,12.4a1.5,1.5,0,0,0-.2,1.6,1.5,1.5,0,0,0,.3.6,2.2,2.2,0,0,0,1.6.8h.1a1.7,1.7,0,0,0,1.5-.8l.3-.4.2-.2,1.3-1.8h0l-.3.6-.5,1L11,14.8a1,1,0,0,0,.5,1.4l3.9,1.4h.3a1,1,0,0,0,1-.9l.2-.3v-.2l.5-1,.8-1.6.3-.6.2-.3H19l.9.5.5.3.8.4.6.2h.3l1.6-.3h2.1a1.8,1.8,0,0,0,1.5-1.9,1.2,1.2,0,0,0-.1-.4v-.3a2.2,2.2,0,0,0-.4-.8,1.7,1.7,0,0,0-1.2-.5h-.4l-1.1.2-1.8.3h-.1l-1.3-.7-.3-.2-.3-.2-.8-.4L16,7.6Z"/></g></g></svg>