<svg xmlns="http://www.w3.org/2000/svg" viewBox="0 0 24.7 28.9"><defs><style>.\38 d779af4-220c-4904-b825-8463d7222c7e{fill:none;stroke:gray;stroke-miterlimit:10;}</style></defs><title>icono-puntajeh</title><g id="c03b5044-ecad-4739-bcd2-bb44b513e432" data-name="Capa 2"><g id="a600e04d-b377-4520-85c6-608fbdc7d5f5" data-name="Editar cosas"><path class="8d779af4-220c-4904-b825-8463d7222c7e" d="M24.2,11.9c-.1.5-.2,1-.3,1.5a8.4,8.4,0,0,1-1.8,3.8,5.5,5.5,0,0,1-3,1.8,7.4,7.4,0,0,1-2,.2l-.4.2a7.1,7.1,0,0,1-2.3,2l-.3.2c-.2.1-.3.2-.3.4s0,1.9,0,2.8,0,.3.3.3h2.8c.3,0,.3,0,.3.3s0,1.1,0,1.6,0,.2.2.2h.7c.1,0,.2.1.2.2s0,.6,0,.9-.1.2-.2.2H6.5c-.1,0-.2,0-.2-.1s0-.6,0-.9.1-.2.2-.2h.7c.2,0,.2,0,.2-.2s0-1.1,0-1.7.1-.2.2-.2h2.9c.2,0,.2-.1.2-.2s0-1.9,0-2.9a.3.3,0,0,0-.2-.3A6.6,6.6,0,0,1,8,19.5a.6.6,0,0,0-.5-.3,6.2,6.2,0,0,1-2.9-.5,5.6,5.6,0,0,1-2.2-1.7A9,9,0,0,1,.7,13a11.6,11.6,0,0,1-.2-2.4c0-.3,0-.3.3-.3H4.9c.3,0,.3,0,.3-.3s0-.5,0-.7.1-.2.2-.2H19.3c.2,0,.2.1.2.2a6.4,6.4,0,0,1,0,.7c0,.2.1.2.3.2h4.4ZM3.7,12H2.6c-.6,0-.5-.1-.4.5a8.3,8.3,0,0,0,1,3,4.4,4.4,0,0,0,1.4,1.5,4.2,4.2,0,0,0,2,.7h.2c0-.1,0-.1,0-.2A11.2,11.2,0,0,1,6,15.6a16.2,16.2,0,0,1-.7-3.4c0-.2-.1-.2-.2-.2Zm14.1,5.6h.3a4,4,0,0,0,3.1-1.8,8.3,8.3,0,0,0,1.2-3.6c0-.1,0-.2-.2-.2H19.6c-.1,0-.2.1-.2.2a16.4,16.4,0,0,1-.6,3.1,11,11,0,0,1-.8,1.9Z"/><line class="8d779af4-220c-4904-b825-8463d7222c7e" x1="3.5" y1="1.6" x2="7.3" y2="5.4"/><line class="8d779af4-220c-4904-b825-8463d7222c7e" x1="20.5" y1="1.8" x2="16.8" y2="5.4"/><line class="8d779af4-220c-4904-b825-8463d7222c7e" x1="12.3" x2="12.3" y2="5.4"/></g></g></svg>