<svg xmlns="http://www.w3.org/2000/svg" viewBox="0 0 43.4 43.4"><defs><style>.\33 2aa39d5-78dc-4eb3-98a9-636797fb8218{fill:#ffbc04;}.\35 d76b3b1-428b-4093-a66d-a566a75f76a5{fill:#8e8a06;}.d8cc8ded-e218-4ec3-b37e-3cd90fa393ee{fill:#bcbc17;}.b4727ed7-3e90-44fc-b7b9-567ff3b2aac8{fill:#e6e6e6;}.\34 f3e05f8-6c33-4b85-90f3-79ee828ac042{fill:#fff;}.\35 26a5552-3a3f-4b96-8dd8-d38c7589f679{fill:none;stroke:#fff;stroke-miterlimit:10;}</style></defs><title>icono-afiliacion-entrenadores</title><g id="95fafb23-e59c-4cb0-8317-bf28184c43f9" data-name="Capa 2"><g id="f1b54ff5-665a-4def-baeb-09043ee4bd38" data-name="Editar cosas"><circle class="32aa39d5-78dc-4eb3-98a9-636797fb8218" cx="21.7" cy="21.7" r="21.7"/><circle class="5d76b3b1-428b-4093-a66d-a566a75f76a5" cx="22.2" cy="23.9" r="10.3"/><path class="d8cc8ded-e218-4ec3-b37e-3cd90fa393ee" d="M22.2,15.1v2A6.8,6.8,0,0,1,29,22.9h2A8.8,8.8,0,0,0,22.2,15.1Z"/><path class="b4727ed7-3e90-44fc-b7b9-567ff3b2aac8" d="M31.9,20.5c-2.6,2.1-5.9,2.6-9.5,2.6s-7.2-.6-9.8-2.9a10.6,10.6,0,0,1,.9-1.8,15,15,0,0,0,17.6.2A9.9,9.9,0,0,1,31.9,20.5Z"/><path class="4f3e05f8-6c33-4b85-90f3-79ee828ac042" d="M30.6,21.4l-1.8.8a6.7,6.7,0,0,0-.8-1.9l1.8-.9A8.2,8.2,0,0,1,30.6,21.4Z"/><path class="b4727ed7-3e90-44fc-b7b9-567ff3b2aac8" d="M31.8,27.5a9.5,9.5,0,0,1-.8,1.6,16.4,16.4,0,0,0-16.7,1.4l-1-1.3a16.4,16.4,0,0,1,18.4-1.7Z"/><line class="526a5552-3a3f-4b96-8dd8-d38c7589f679" x1="23.2" y1="7.6" x2="23.2" y2="11"/><line class="526a5552-3a3f-4b96-8dd8-d38c7589f679" x1="31.2" y1="10.7" x2="28.8" y2="12.6"/><line class="526a5552-3a3f-4b96-8dd8-d38c7589f679" x1="14.6" y1="10.7" x2="16.9" y2="12.6"/></g></g></svg>