<svg xmlns="http://www.w3.org/2000/svg" viewBox="0 0 94.8 82.5"><defs><style>.\32 fd821e8-77c9-463c-8677-6b26500810a9{fill:#898200;}.\39 1e9aea9-cc6e-4d1b-b013-fb39a221bcd0{fill:#bcbc17;}</style></defs><title>icono-renueva-afiliacion</title><g id="965df74b-898d-44f7-948f-51069d082e56" data-name="Capa 2"><g id="d0f59fff-f3f6-4e99-bd02-c4a7d30b979b" data-name="Editar cosas"><path class="2fd821e8-77c9-463c-8677-6b26500810a9" d="M27.3,27.4V55a1.1,1.1,0,0,0,1.1,1.1H72.8A1.1,1.1,0,0,0,73.9,55V27.4a1.1,1.1,0,0,0-1.1-1.1H28.4A1.1,1.1,0,0,0,27.3,27.4ZM71.1,54h-41a.7.7,0,0,1-.7-.7V29.1a.7.7,0,0,1,.7-.7h41a.7.7,0,0,1,.7.7V53.3A.7.7,0,0,1,71.1,54Z"/><path class="2fd821e8-77c9-463c-8677-6b26500810a9" d="M68.6,22.7H24.2a1.1,1.1,0,0,0-1.1,1.1V51.3a1.1,1.1,0,0,0,1.1,1.1h4V50.3H25.9a.7.7,0,0,1-.7-.7V25.4a.7.7,0,0,1,.7-.7h41a.7.7,0,0,1,.7.7v2h2.1V23.8A1.1,1.1,0,0,0,68.6,22.7Z"/><rect class="2fd821e8-77c9-463c-8677-6b26500810a9" x="54.7" y="34.1" width="14.4" height="2.03"/><rect class="2fd821e8-77c9-463c-8677-6b26500810a9" x="54.7" y="40.3" width="14.4" height="2.03"/><rect class="2fd821e8-77c9-463c-8677-6b26500810a9" x="54.7" y="46.4" width="9.2" height="2.03"/><rect class="2fd821e8-77c9-463c-8677-6b26500810a9" x="65.6" y="46.4" width="3.4" height="2.03"/><path class="2fd821e8-77c9-463c-8677-6b26500810a9" d="M46,45.4V42.6a2.8,2.8,0,0,0,1.4-2.4V36.6a2.8,2.8,0,0,0-2.8-2.8H42.7A2.8,2.8,0,0,0,40,36.6v3.6A2.8,2.8,0,0,0,41,42.3v3l-4.3,3.1A4.1,4.1,0,0,0,35,51.7V53H52.4V51.8a4.1,4.1,0,0,0-1.8-3.4Z"/><rect class="91e9aea9-cc6e-4d1b-b013-fb39a221bcd0" x="48.4" width="2.7" height="9.23"/><rect class="91e9aea9-cc6e-4d1b-b013-fb39a221bcd0" x="48.4" y="73.2" width="2.7" height="9.23"/><rect class="91e9aea9-cc6e-4d1b-b013-fb39a221bcd0" x="3.3" y="34.9" width="2.7" height="9.23" transform="translate(-34.9 44.1) rotate(-90)"/><rect class="91e9aea9-cc6e-4d1b-b013-fb39a221bcd0" x="88.9" y="34.9" width="2.7" height="9.23" transform="translate(50.7 129.7) rotate(-90)"/><rect class="91e9aea9-cc6e-4d1b-b013-fb39a221bcd0" x="15.8" y="65.2" width="2.7" height="9.23" transform="translate(-20.1 131.3) rotate(-135)"/><rect class="91e9aea9-cc6e-4d1b-b013-fb39a221bcd0" x="76.3" y="4.7" width="2.7" height="9.23" transform="translate(126 70.8) rotate(-135)"/><rect class="91e9aea9-cc6e-4d1b-b013-fb39a221bcd0" x="76.3" y="65.2" width="2.7" height="9.23" transform="translate(181.9 64.2) rotate(135)"/><rect class="91e9aea9-cc6e-4d1b-b013-fb39a221bcd0" x="15.8" y="4.7" width="2.7" height="9.23" transform="translate(35.8 3.7) rotate(135)"/></g></g></svg>