<svg xmlns="http://www.w3.org/2000/svg" viewBox="0 0 43.4 43.4"><defs><style>.\33 c589f42-22ee-4b2d-a45f-56d0dcacfb38{fill:#ffbc04;}.\38 5c40e5c-cc55-4468-80d0-67f8df6c7dd0{fill:#666;}.e38b5208-60ff-4cb5-b56e-a1a71ed51e0f{fill:#333;}.\35 a904ca9-45b8-4763-a256-28c0bcff51f9{fill:#664600;}.d7488756-6a04-4a7a-9afb-862813c6a73c{fill:#966b00;}</style></defs><title>icono-asociaciones-diversas</title><g id="6e7fc405-f160-4598-8cd0-138af964581d" data-name="Capa 2"><g id="11e885c4-7995-475b-a15f-e19ad0bd82a6" data-name="Editar cosas"><circle class="3c589f42-22ee-4b2d-a45f-56d0dcacfb38" cx="21.7" cy="21.7" r="21.7"/><path class="85c40e5c-cc55-4468-80d0-67f8df6c7dd0" d="M24.4,11.8H24c-.2,0-.3-.1-.3-.3A1.6,1.6,0,0,0,22,10.2H15a1.7,1.7,0,0,0-1.8,1.4.2.2,0,0,1-.3.2h-.7a1.6,1.6,0,0,0-1.5,1.3,6.3,6.3,0,0,0,0,.8V32.5H26.2v-19A1.6,1.6,0,0,0,24.4,11.8Zm-9.7,20c0,.2-.1.2-.2.2H12.6c-.2,0-.2-.1-.2-.2s0-.9,0-1.4,0-.9,0-1.3.1-.2.2-.2h1.9c.2,0,.2.1.2.2Zm0-4.9c0,.2-.1.2-.2.2H12.6c-.2,0-.2-.1-.2-.2s0-.9,0-1.4,0-.9,0-1.3.1-.2.3-.2h1.9c.2,0,.2.1.2.2Zm0-4.8c0,.2-.1.2-.2.2H12.6c-.2,0-.2-.1-.2-.2s0-.9,0-1.4,0-.9,0-1.3.1-.2.2-.2h1.9c.2,0,.2.1.2.2S14.8,21.2,14.8,22.1Zm0-6.2c0,.4,0,.9,0,1.3s0,.3-.3.3H12.6c-.2,0-.2-.1-.2-.3V14.5c0-.2.1-.3.3-.2h1.9c.2,0,.3.1.3.3S14.8,15.4,14.8,15.9Zm3.3,16c0,.2-.1.3-.3.3H15.9c-.2,0-.3-.1-.3-.3s0-.9,0-1.3,0-.9,0-1.3.1-.3.3-.3h1.9c.2,0,.3.1.3.3S18,30.9,18,31.8Zm0-6.2c0,.4,0,.9,0,1.3s-.1.3-.3.3H15.9c-.2,0-.2-.1-.2-.2V24.2c0-.2.1-.2.2-.2h1.9c.2,0,.2.1.2.3S18,25.1,18,25.6Zm0-4.9c0,.4,0,.9,0,1.4s-.1.3-.3.3H15.9c-.2,0-.3-.1-.3-.3s0-1.8,0-2.7.1-.3.3-.3h1.9c.2,0,.3.1.3.3S18,20.3,18,20.7Zm0-4.9c0,.5,0,.9,0,1.3s-.1.3-.3.3H15.9c-.2,0-.3-.1-.3-.3s0-1.8,0-2.7.1-.3.3-.3h1.9c.2,0,.3.1.3.3S18,15.4,18,15.9Zm3.3,15.9c0,.2-.1.3-.3.3H19.1c-.2,0-.3-.1-.3-.3s0-.9,0-1.3,0-.9,0-1.3.1-.3.3-.3H21c.2,0,.3.1.3.3S21.3,30.9,21.3,31.8Zm0-6.2c0,.4,0,.9,0,1.4s-.1.3-.2.3H19.1c-.2,0-.2-.1-.2-.2s0-1.8,0-2.7.1-.3.3-.3H21c.2,0,.3.1.3.3S21.3,25.1,21.3,25.6Zm0-3.5c0,.2-.1.2-.2.2H19.1c-.2,0-.2-.1-.2-.2s0-.9,0-1.4,0-.9,0-1.3.1-.2.2-.2h1.9c.2,0,.2.1.2.2S21.3,21.2,21.3,22.1Zm0-6.2c0,.4,0,.9,0,1.3s0,.3-.3.3H19.1c-.2,0-.3-.1-.2-.3V14.5c0-.2.1-.2.3-.2H21c.2,0,.3.1.3.3S21.3,15.4,21.3,15.9Zm3.3,14.6c0,.4,0,.9,0,1.3s0,.3-.3.3H22.4c-.2,0-.3-.1-.3-.3V29.1c0-.2.1-.3.3-.3h1.9c.2,0,.3.1.3.3S24.5,30,24.5,30.5Zm0-3.6c0,.2-.1.3-.3.3H22.4c-.2,0-.2-.1-.2-.3V24.3c0-.2.1-.3.3-.3h1.9c.2,0,.3.1.3.3s0,.9,0,1.3S24.5,26.5,24.5,26.9Zm0-4.9c0,.2-.1.3-.3.3H22.4c-.2,0-.3-.1-.3-.3V19.4c0-.2.1-.2.3-.2h1.9c.2,0,.2.1.2.3s0,.9,0,1.3S24.5,21.6,24.5,22.1Zm0-4.8c0,.2-.1.2-.2.2H22.4c-.2,0-.2-.1-.2-.2s0-.9,0-1.4,0-.9,0-1.4.1-.2.2-.2h1.9c.2,0,.2.1.2.2S24.5,16.3,24.5,17.2Z"/><path class="e38b5208-60ff-4cb5-b56e-a1a71ed51e0f" d="M24.4,11.8H24c-.2,0-.3-.1-.3-.3A1.6,1.6,0,0,0,22,10.2H20.4v4.1H21c.2,0,.3.1.3.3s0,.9,0,1.3,0,.9,0,1.3,0,.3-.3.3h-.6v1.7h.6c.2,0,.2.1.2.2s0,1.8,0,2.7-.1.2-.2.2h-.6V24H21c.2,0,.3.1.3.3s0,.9,0,1.4,0,.9,0,1.4-.1.3-.2.3h-.6v1.7H21c.2,0,.3.1.3.3s0,1.8,0,2.7-.1.3-.3.3h-.6v.4h5.8v-19A1.6,1.6,0,0,0,24.4,11.8Zm.1,18.7c0,.4,0,.9,0,1.3s0,.3-.3.3H22.4c-.2,0-.3-.1-.3-.3V29.1c0-.2.1-.3.3-.3h1.9c.2,0,.3.1.3.3S24.5,30,24.5,30.5Zm0-3.6c0,.2-.1.3-.3.3H22.4c-.2,0-.2-.1-.2-.3V24.3c0-.2.1-.3.3-.3h1.9c.2,0,.3.1.3.3s0,.9,0,1.3S24.5,26.5,24.5,26.9Zm0-4.9c0,.2-.1.3-.3.3H22.4c-.2,0-.3-.1-.3-.3V19.4c0-.2.1-.2.3-.2h1.9c.2,0,.2.1.2.3s0,.9,0,1.3S24.5,21.6,24.5,22.1Zm0-4.8c0,.2-.1.2-.2.2H22.4c-.2,0-.2-.1-.2-.2s0-.9,0-1.4,0-.9,0-1.4.1-.2.2-.2h1.9c.2,0,.2.1.2.2S24.5,16.3,24.5,17.2Z"/><path class="e38b5208-60ff-4cb5-b56e-a1a71ed51e0f" d="M33.5,18.4c0,.7,0,1.4,0,2.1v12H26.9a.9.9,0,0,0,0-.2v-.7c0-.3,0-.3.3-.3h4.2c.4,0,.4,0,.4-.4a.7.7,0,0,1,0-.1c0-.2-.1-.3-.3-.3H27.3c-.3,0-.3,0-.3-.4s0-.7,0-1,.1-.3.3-.3h4.2c.4,0,.4,0,.4-.4a1.2,1.2,0,0,1,0-.2.2.2,0,0,0-.2-.2H27.4c-.4,0-.4,0-.4-.4v-.8c0-.4,0-.4.4-.4h4.1c.4,0,.4,0,.4-.3s0-.5-.5-.5H27.3c-.3,0-.3,0-.3-.3v-1c0-.3,0-.4.3-.4h4.1c.4,0,.4,0,.4-.4h0c0-.3,0-.3-.3-.3H27.4c-.4,0-.4,0-.4-.4v-1c0-.3,0-.3.3-.3h4.2c.4,0,.4,0,.4-.4s0-.4-.4-.4H27.3c-.3,0-.3,0-.3-.3v-1c0-.3,0-.3.3-.3h4.2c.1,0,.3.1.3-.1a.9.9,0,0,0,0-.6H27.4c-.4,0-.4,0-.4-.4V15.4c0-.3,0-.3.3-.3s.5,0,.5-.5,0-1.3,0-1.9a.8.8,0,0,1,.9-.8.8.8,0,0,1,.7.7,7.4,7.4,0,0,1,0,1.1v1c0,.4,0,.4.4.4h.7a1.5,1.5,0,0,1,1.3,1.3.4.4,0,0,0,.4.4A1.6,1.6,0,0,1,33.5,18.4Z"/><path class="5a904ca9-45b8-4763-a256-28c0bcff51f9" d="M34.3,33.3c0,.2,0,.5,0,.7s-.1.4-.5.5H10.5c-.4,0-.5-.1-.5-.5s0-.4,0-.6.1-.5.5-.5.3,0,.3-.4H33.5c0,.3,0,.3.3.4S34.3,33,34.3,33.3Z"/><path class="d7488756-6a04-4a7a-9afb-862813c6a73c" d="M20.8,32.5v2H10.5c-.4,0-.5-.1-.5-.5s0-.4,0-.6.1-.5.5-.5.3,0,.3-.4Z"/></g></g></svg>