<svg xmlns="http://www.w3.org/2000/svg" viewBox="0 0 43.4 43.4"><defs><style>.d2ea12fb-c55e-4506-acac-ceb94db4264a{fill:#ffbc04;}.\33 76828fe-61b2-4585-a304-a55dcaf28eff{fill:#f2f2f2;}.\33 e602293-40d6-4ff4-9885-cf9e12c3ca6b{fill:#999;}.c13bd579-bc62-4aa4-91cd-630085a19d39{fill:#bcbc17;}.\32 5b91646-456f-4640-a32f-3086b8fef417{fill:#8e8a06;}</style></defs><title>icono-canchas-particulares</title><g id="e1919824-d633-4858-9d4b-1357d40de51b" data-name="Capa 2"><g id="643dd1bb-ef80-4cb5-9334-447fe0b92e79" data-name="Editar cosas"><circle class="d2ea12fb-c55e-4506-acac-ceb94db4264a" cx="21.7" cy="21.7" r="21.7"/><path class="376828fe-61b2-4585-a304-a55dcaf28eff" d="M22.3,14.6V30H12.5a1.8,1.8,0,0,1-1.8-1h-.1V15.7a2.2,2.2,0,0,1,1.1-1H22.3Z"/><path class="3e602293-40d6-4ff4-9885-cf9e12c3ca6b" d="M32.9,15.7V28.9h-.1A1.8,1.8,0,0,1,31,30H22V14.6h9.7A2.2,2.2,0,0,1,32.9,15.7Z"/><path class="c13bd579-bc62-4aa4-91cd-630085a19d39" d="M11.2,16.3a2,2,0,0,1,1-.9h8.9c.4,0,.4,0,.4.4s0,1.8,0,2.7,0,.6-.6.8a3.3,3.3,0,0,0-2.2,2.3,2.9,2.9,0,0,0,.3,2.4,2.8,2.8,0,0,0,1.9,1.5h.3a.4.4,0,0,1,.3.4q0,1.5,0,3c0,.3-.1.4-.4.4H12.9a1.7,1.7,0,0,1-1.6-.9h-.1V25.6h3.2c.3,0,.4-.1.4-.4q0-2.9,0-5.8c0-.3-.1-.4-.4-.4H11.2Z"/><path class="c13bd579-bc62-4aa4-91cd-630085a19d39" d="M11.2,24.9V19.7h2.5c.4,0,.5.1.5.5s0,2.8,0,4.2-.1.5-.5.5Z"/><path class="25b91646-456f-4640-a32f-3086b8fef417" d="M26.7,29.3H22.5c-.5,0-.5,0-.5-.5s0-1.9,0-2.8.1-.4.3-.5a3.3,3.3,0,0,0,1.7-1,3,3,0,0,0,.8-2.9A3.3,3.3,0,0,0,23,19.3l-.7-.2a.4.4,0,0,1-.3-.4q0-1.5,0-3c0-.3.1-.4.4-.4h8.4a1.6,1.6,0,0,1,1.6,1.6c-.1.6,0,1.2,0,1.8s0,.4-.4.4H29.2c-.3,0-.4.1-.4.4q0,2.9,0,5.8c0,.3.1.4.4.4H32c.3,0,.4.1.4.4a16.3,16.3,0,0,0,0,1.9,1.6,1.6,0,0,1-1.5,1.5Z"/><path class="25b91646-456f-4640-a32f-3086b8fef417" d="M32.4,22.3c0,.7,0,1.5,0,2.2s-.1.4-.4.4H29.8c-.4,0-.5-.1-.5-.5s0-2.8,0-4.3.1-.5.5-.5H32c.3,0,.4.1.4.4S32.4,21.6,32.4,22.3Z"/><path class="25b91646-456f-4640-a32f-3086b8fef417" d="M22,22.3c0-.7,0-1.4,0-2.2s.1-.5.5-.3a2.8,2.8,0,0,1,1.9,2.4,2.7,2.7,0,0,1-1.5,2.5l-.4.2c-.3.1-.4,0-.4-.4S22,23,22,22.3Z"/><path class="c13bd579-bc62-4aa4-91cd-630085a19d39" d="M21.5,22.3c0,.7,0,1.4,0,2.1s-.1.5-.5.4a2.7,2.7,0,0,1-.5-4.8l.7-.3c.3-.1.4,0,.4.3S21.5,21.6,21.5,22.3Z"/></g></g></svg>