<svg xmlns="http://www.w3.org/2000/svg" viewBox="0 0 20.4 23"><defs><style>.a9be0b24-2931-4c13-b3c4-f28221327904{fill:#f7931e;}.\35 d280844-a03d-481a-8871-198be768e66e{fill:#a54c11;}.\31 a147f0e-86c8-4e91-b215-7fa6f231df7b{fill:#2f6c8e;}.\34 8817f26-6893-4ebc-bc62-2767b7b3eb39{fill:#2b4063;}.\31 9ed1aa2-e942-4c74-8da5-4fa991277897{fill:#fff;}.c9ab4c13-07ee-4af6-ae36-7d34cd7940d5{fill:#94aab2;}.e5d38e9e-1e95-4995-b960-e1e5dbd79248{fill:#f79361;}.\38 52b3cab-0c42-4652-be3f-eabd418873f2{fill:#f96c46;}.e2c412e1-c900-40b2-b4ec-4bc729241ae4{fill:gray;}.\36 36e334b-7aab-4c7b-aa60-1cfd03612918{fill:#333;}.\31 5b6f5cb-5304-49be-b680-1a160cb8d5fc{fill:#89ff00;}.eba94bcb-3598-4557-870f-954bb6815a01{fill:#5baa00;}</style></defs><title>icontab-sillarueda</title><g id="b6ca4836-000b-43e3-915b-16d40d35e98b" data-name="Capa 2"><g id="b286d3e1-b2de-454f-9ede-d5c98d8043d5" data-name="Editar cosas"><path class="a9be0b24-2931-4c13-b3c4-f28221327904" d="M5.4,22.5H5.3a5.6,5.6,0,0,1-4-2.8A5.6,5.6,0,0,1,6,11.4H7.3a5.5,5.5,0,0,1,4.3,5.8A5.4,5.4,0,0,1,9,21.6a5.9,5.9,0,0,1-2.2.8H5.4ZM7.1,20l1-.6-1-.6Zm-3.2-.6L5,20c0-.1,0-1,0-1.2Zm5.3-1.9a2.4,2.4,0,0,0,0-.6,3,3,0,0,0,0-.6l-1,.6ZM2.9,16.4a3.8,3.8,0,0,0-.1.6,2.9,2.9,0,0,0,.1.6l1-.6Zm4.3-1.2.5-.3.5-.3-1-.6ZM5,15.1V13.9l-1,.6Z"/><path class="5d280844-a03d-481a-8871-198be768e66e" d="M6,11.9H7.2a5,5,0,0,1,3.9,5.3,4.9,4.9,0,0,1-2.3,3.9,5.5,5.5,0,0,1-2,.8H5.3a5,5,0,0,1,.7-10m.9,3.8h.2l1.7-1c.1-.1.1-.1,0-.2a3.7,3.7,0,0,0-2-1.2H6.7c-.1,0-.1.1-.1.2s0,.7,0,1,0,.6,0,.9a.3.3,0,0,0,.3.4m-1.8,0c.2,0,.3-.1.3-.4s0-.6,0-.9h0c0-.3,0-.6,0-1s0-.2-.1-.2H5.3a3.8,3.8,0,0,0-2,1.1c-.1.1-.1.2,0,.3l1.6.9h.2M2.6,18.2h.1l1.7-1a.3.3,0,0,0,0-.5l-1.7-1H2.5A3.9,3.9,0,0,0,2.3,17a3.8,3.8,0,0,0,.2,1.2h.1m6.9,0h.1A3.6,3.6,0,0,0,9.8,17a3.7,3.7,0,0,0-.2-1.2H9.3l-1.6,1a.3.3,0,0,0,0,.6l1.7,1h.1M6,17.3a.3.3,0,0,0,.3-.3.4.4,0,0,0-.3-.3H6a.3.3,0,0,0-.3.3.3.3,0,0,0,.3.3H6m-.7,3.3c.1,0,.1-.1.1-.2s0-.6,0-1,0-.6,0-.9a.3.3,0,0,0-.3-.4H5l-1.6.9c-.2.1-.2.1-.1.3a3.8,3.8,0,0,0,1.9,1.1h.1m1.4,0h.1a3.8,3.8,0,0,0,2-1.1c.1-.1.1-.2,0-.3l-1.6-.9H6.9a.3.3,0,0,0-.3.4c0,.3,0,.6,0,.9s0,.7,0,1,0,.2.1.2M6,10.9H6a6.1,6.1,0,0,0-5.3,9,6.1,6.1,0,0,0,4.3,3H6.9A6.4,6.4,0,0,0,9.3,22a5.9,5.9,0,0,0,2.8-4.7,6,6,0,0,0-4.7-6.3L6,10.9Z"/><path class="1a147f0e-86c8-4e91-b215-7fa6f231df7b" d="M13.8,19.7h-.2a1.4,1.4,0,0,1-.9-1.3V16.7a10.3,10.3,0,0,1-.1-1.1,3.2,3.2,0,0,0-.1-.7,3.6,3.6,0,0,0-.5-1.1.6.6,0,0,1-.1-.6.6.6,0,0,1,.5-.3h1.3a1.3,1.3,0,0,1,1.2,1.2l.3,2,.3,2a1.3,1.3,0,0,1-.9,1.5h-.5Z"/><path class="48817f26-6893-4ebc-bc62-2767b7b3eb39" d="M12.1,13.4h1.3a.8.8,0,0,1,.8.8v1.1l.4,2.8a.8.8,0,0,1-.6,1h-.4a.9.9,0,0,1-.6-.9V17.2c-.1-.5-.2-1-.2-1.6a3.7,3.7,0,0,0-.1-.8,4.1,4.1,0,0,0-.6-1.2h0m0-1a1,1,0,0,0-1,.6,1.1,1.1,0,0,0,.1,1.1,3.1,3.1,0,0,1,.4.9,2.7,2.7,0,0,1,.1.6,10.5,10.5,0,0,0,.1,1.1v1.7a1.9,1.9,0,0,0,1.3,1.7h1a1.8,1.8,0,0,0,1.3-2.1l-.3-2V14.2a1.8,1.8,0,0,0-1.7-1.7H12.1Z"/><path class="1a147f0e-86c8-4e91-b215-7fa6f231df7b" d="M14.2,20.3a1.2,1.2,0,0,1,0-2.5h1a1.2,1.2,0,0,1,0,2.5Z"/><path class="48817f26-6893-4ebc-bc62-2767b7b3eb39" d="M15.3,18.4a.7.7,0,0,1,0,1.5h-1a.7.7,0,1,1,0-1.5h1m0-1h-1a1.7,1.7,0,1,0,0,3.5h1a1.7,1.7,0,0,0,0-3.5Z"/><path class="19ed1aa2-e942-4c74-8da5-4fa991277897" d="M10.1,12.3H9.9a4.2,4.2,0,0,0-3.1-1.4.7.7,0,0,1-.6-.2.7.7,0,0,1-.1-.6L6.5,8l.3-1.3A1.6,1.6,0,0,1,8.3,5.4h.2l2.2.5a1.6,1.6,0,0,1,1.2,1.9v.3h.7a1.3,1.3,0,0,1,0,2.5H11.2a.7.7,0,0,1,.1.5l-.2,1a.6.6,0,0,1-.6.5Z"/><path class="c9ab4c13-07ee-4af6-ae36-7d34cd7940d5" d="M8.3,5.9h.1l2.2.4a1.1,1.1,0,0,1,.8,1.3l-.2.2h-.3l-1-.6,1.1,1.3h1.4a.8.8,0,0,1,0,1.5H10.8a.9.9,0,0,1-.7-.3l-.8-.9-.6-.6c.3.7.6,1.5,1,2.2a.7.7,0,0,0,.6.4h.3c.1,0,.1.1.1.2l-.2,1h-.2a4.7,4.7,0,0,0-3.5-1.6c-.2,0-.2,0-.2-.2l.3-1.5.4-1.7a1.1,1.1,0,0,1,1-.9m0-1a2.1,2.1,0,0,0-2,1.7L6.1,7.9v.5l-.2.7v.7a1.1,1.1,0,0,0,1.1,1.4,3.7,3.7,0,0,1,2.8,1.3h.1a1.1,1.1,0,0,0,1.8-.5l.2-1h.8a1.8,1.8,0,1,0,0-3.5h-.1a2.1,2.1,0,0,0-1.6-2.1L8.6,5Z"/><path class="e5d38e9e-1e95-4995-b960-e1e5dbd79248" d="M9.7,4.8A2.2,2.2,0,0,1,9.7.5h0a2.2,2.2,0,0,1,1.5.6,2.1,2.1,0,0,1,.6,1.5A2.1,2.1,0,0,1,9.7,4.8Z"/><path class="852b3cab-0c42-4652-be3f-eabd418873f2" d="M9.7,1a1.7,1.7,0,0,1,0,3.3h0A1.7,1.7,0,0,1,9.7,1h0m0-1h0a2.7,2.7,0,0,0,0,5.3,2.6,2.6,0,0,0,2.7-2.6A2.6,2.6,0,0,0,11.6.8,2.7,2.7,0,0,0,9.7,0Z"/><path class="a9be0b24-2931-4c13-b3c4-f28221327904" d="M3.8,12c-.2,0-.6-.1-.6-.7v-.6c0-.5,0-1.1,0-1.6H2.9A1.3,1.3,0,0,1,1.5,7.8,1.3,1.3,0,0,1,2.8,6.5H4.6A1.3,1.3,0,0,1,5.7,7.8s0,2.8,0,3.1a.7.7,0,0,1-.6.8l-1,.3Z"/><path class="5d280844-a03d-481a-8871-198be768e66e" d="M3.7,6.9h.8a.8.8,0,0,1,.7.8c0,.5,0,1,0,1.5h0c0,.5,0,1.1,0,1.6a.2.2,0,0,1-.2.3L4,11.5H3.8c-.1,0-.1-.1-.1-.2s0-1.6,0-2.5-.1-.3-.2-.3H2.9A.8.8,0,0,1,2,7.8.8.8,0,0,1,2.8,7h.9M5.3,9.3h0M3.7,5.9H2.7A1.8,1.8,0,0,0,1,7.8,1.8,1.8,0,0,0,2.7,9.5c0,.4,0,.8,0,1.2v.6a1.1,1.1,0,0,0,1.1,1.2h.6l.8-.2a1.2,1.2,0,0,0,1.1-1.3c0-.4,0-.8,0-1.1V9.4h0V8.9c0-.4,0-.7,0-1.1A1.7,1.7,0,0,0,4.6,6Z"/><path class="5d280844-a03d-481a-8871-198be768e66e" d="M6.1,15.9a.9.9,0,1,1-.9.9.9.9,0,0,1,.9-.9m0-1A1.9,1.9,0,1,0,8,16.9a1.9,1.9,0,0,0-1.9-1.9Z"/><path class="e2c412e1-c900-40b2-b4ec-4bc729241ae4" d="M14.2,9.4l-.3-.2-.2-.3a.4.4,0,0,1,.1-.4l.9-.8.3-.2a2.5,2.5,0,0,0,.7-1.3V5.7a2.2,2.2,0,0,1,.4-1.1,2.6,2.6,0,0,1,2-1.1h0a1.8,1.8,0,0,1,1.5.6A1.8,1.8,0,0,1,20,5.6a2.6,2.6,0,0,1-2.5,2h-.4a2.4,2.4,0,0,0-1.4.5h-.1l-.2.3-1,.9h-.3Zm4-5a1.6,1.6,0,0,0-1.5,1.3.8.8,0,0,0,.9,1,1.6,1.6,0,0,0,1.5-1.2.9.9,0,0,0-.1-.8.9.9,0,0,0-.7-.3v0Z"/><path class="636e334b-7aab-4c7b-aa60-1cfd03612918" d="M18.3,3.8a1.3,1.3,0,0,1,1.4,1.7,2.2,2.2,0,0,1-2.1,1.7h-.4a2.7,2.7,0,0,0-1.6.5c-.1.1-.2.1-.2.3h-.1l-1,.9-.2-.3.9-.8h.3a2.8,2.8,0,0,0,.9-1.6,3,3,0,0,0,0-.4,1.8,1.8,0,0,1,.3-.9,2.2,2.2,0,0,1,1.7-1h.1m-.7,3.2h0a2,2,0,0,0,1.8-1.5A1.2,1.2,0,0,0,18.2,4h0a2,2,0,0,0-1.8,1.6,1.2,1.2,0,0,0,1.2,1.5m-1.9.4h0l1.2-.4a1.3,1.3,0,0,1-.7-.8,3.4,3.4,0,0,1-.5,1.1h0m2.6-4.4h-.1a2.9,2.9,0,0,0-2.3,1.3,2.6,2.6,0,0,0-.5,1.3c0,.1,0,.2,0,.2a.8.8,0,0,1,0,.1,2.2,2.2,0,0,1-.5,1.1l-.4.2-.9.8a.7.7,0,0,0-.2.9l.2.3a.7.7,0,0,0,.5.4h.2l.5-.2.7-.6.3-.3h0l.2-.3A2,2,0,0,1,17.1,8h.4a3,3,0,0,0,2.9-2.3,2.2,2.2,0,0,0-.4-1.8,2.1,2.1,0,0,0-1.7-.8Z"/><path class="15b6f5cb-5304-49be-b680-1a160cb8d5fc" d="M16.1,3.5a.9.9,0,0,1-.7-1.6.9.9,0,0,1,.7-.3.9.9,0,0,1,1,.9.9.9,0,0,1-.2.7,1,1,0,0,1-.7.3Z"/><path class="eba94bcb-3598-4557-870f-954bb6815a01" d="M16.1,2.1h0a.4.4,0,0,1,.4.4.4.4,0,0,1-.4.4h0a.4.4,0,0,1-.4-.4.4.4,0,0,1,.4-.4m0-1a1.4,1.4,0,0,0-1,.4,1.4,1.4,0,0,0,1,2.5,1.5,1.5,0,0,0,1.1-.5,1.4,1.4,0,0,0,.4-1,1.4,1.4,0,0,0-1.4-1.4Z"/></g></g></svg>