<svg xmlns="http://www.w3.org/2000/svg" viewBox="0 0 29.4 29.1"><defs><style>.\36 85bbe27-5497-415a-a4ee-cebf3cdd4f90{fill:#8c6239;}.\32 1243b5e-5907-4f4d-bd56-75d1eea15897{fill:#f7931e;}.a98fcd06-456b-4ac5-870a-30841185f4c4{fill:#39b54a;}.\38 1f95078-15a1-4936-a53a-6cc4c503f554{fill:#fcee21;}.\33 d5741f8-3daf-46dd-96d1-ed46aa6a5ae7{fill:#2f6c8e;}.\35 acaabdd-8edf-4d85-ad1d-63ca93bf6790{fill:#2b4063;}.\32 676ccb8-3c0f-4dee-a2fb-9b180c1b01ed{fill:#ed1c24;}.\33 f24b615-a63f-49d9-b495-ad71e4fc934f{fill:aqua;}</style></defs><title>icono-tennis</title><g id="885fcf69-61bc-4185-8cdc-0871736b67cf" data-name="Capa 2"><g id="03fecede-2167-4146-80ab-3186624b02ce" data-name="Editar cosas"><path class="685bbe27-5497-415a-a4ee-cebf3cdd4f90" d="M19,19.1H18c-1.7,0-2.7-1.3-3.5-2.4L12,13.5l-1.6-2-.2-.2-.2.2L6.7,14.1l-4,3.2a1.5,1.5,0,0,1-.9.5c-.7,0-.8-.7-.9-1A13.4,13.4,0,0,1,10,1.1,14,14,0,0,1,13.9.5a14.8,14.8,0,0,1,5.8,1.3c.5.2,1,.4,1.1.9s-.4.8-.8,1.1L18,5.4,13.2,9.1c-.3.3-.4.4-.4.5s0,.2.3.6L17.6,16l2.5,3.2Z"/><path class="21243b5e-5907-4f4d-bd56-75d1eea15897" d="M13.9,1a14.2,14.2,0,0,1,5.6,1.2c1,.4,1,.5.2,1.2L12.9,8.7c-.8.6-.8,1-.2,1.8l6.4,8H18c-1.4,0-2.3-1.1-3.1-2.2l-4.1-5.2c-.2-.2-.4-.4-.5-.4l-.5.3L2.4,16.9l-.6.3c-.2,0-.3-.2-.4-.7a12.9,12.9,0,0,1,8.8-15A13.4,13.4,0,0,1,13.9,1m0-1h0a14.5,14.5,0,0,0-4,.6A13.9,13.9,0,0,0,.4,16.8c.2.9.7,1.4,1.4,1.4A2,2,0,0,0,3,17.7l4-3.2L10.1,12l1.5,1.8L14.1,17c.9,1.2,1.9,2.6,3.9,2.6h1l2.3.2-1.4-1.8L18,15.6,13.4,9.9V9.7l.2-.2,4.9-3.8,1.9-1.5c.5-.4,1.1-.8,1-1.6s-.8-1.1-1.4-1.3a15.3,15.3,0,0,0-6-1.3Z"/><path class="a98fcd06-456b-4ac5-870a-30841185f4c4" d="M1.8,17.8c-.7,0-.8-.7-.9-1A13.4,13.4,0,0,1,5.6,3.4l.4-.3,6.1,6.8-.5.3L10,11.5,6.6,14.1l-4,3.2A1.5,1.5,0,0,1,1.8,17.8Z"/><path class="21243b5e-5907-4f4d-bd56-75d1eea15897" d="M5.9,3.8l5.4,6.1L9.7,11.1,2.4,16.9l-.6.4c-.2,0-.3-.2-.4-.7A12.8,12.8,0,0,1,5.9,3.8M6,2.4,5.2,3A13.7,13.7,0,0,0,.4,16.8c.2.9.7,1.4,1.4,1.4A2,2,0,0,0,3,17.7L7,14.5l3.3-2.7,1.6-1.2.9-.6-.7-.8L6.6,3.1,6,2.4Z"/><path class="81f95078-15a1-4936-a53a-6cc4c503f554" d="M5.2,3.7l.4-.3A12.7,12.7,0,0,1,10,1.1,14,14,0,0,1,13.9.5a14.9,14.9,0,0,1,5.8,1.3c.5.2,1,.4,1.1.9s-.4.8-.8,1.1l-8.4,6.4-.4.3Z"/><path class="21243b5e-5907-4f4d-bd56-75d1eea15897" d="M13.9,1a14.3,14.3,0,0,1,5.6,1.2c1,.4,1,.5.2,1.2L11.3,9.9,5.9,3.8a12.2,12.2,0,0,1,4.3-2.2A13.4,13.4,0,0,1,13.9,1m0-1a14.5,14.5,0,0,0-4,.6A13.2,13.2,0,0,0,5.2,3l-.8.7.7.8,5.4,6.1.6.7.7-.6,8.4-6.4c.5-.4,1.1-.8,1-1.6s-.8-1.1-1.4-1.3a15.4,15.4,0,0,0-6-1.3Z"/><path class="3d5741f8-3daf-46dd-96d1-ed46aa6a5ae7" d="M22.2,23.4a4.7,4.7,0,0,1-1.9-.5,3.8,3.8,0,0,0-1.6-.4,3.6,3.6,0,0,0-1.5.3,4.6,4.6,0,0,1-1.9.4,4.9,4.9,0,0,1-2-.5,3.8,3.8,0,0,0-1.5-.3,3.6,3.6,0,0,0-1.5.4,4.5,4.5,0,0,1-1.9.4,4.7,4.7,0,0,1-2-.5,3.8,3.8,0,0,0-1.6-.4,3.6,3.6,0,0,0-1.6.4l-.7.2c-.4,0-.8-.2-.8-1.1A2.8,2.8,0,0,1,2.5,20a3.1,3.1,0,0,1,2.2-.9,3.3,3.3,0,0,1,1.4.3,5,5,0,0,0,2.2.5,5.7,5.7,0,0,0,2.2-.5l1.4-.3a4,4,0,0,1,1.8.4,3.5,3.5,0,0,0,3.3,0,4,4,0,0,1,1.8-.4,4.2,4.2,0,0,1,1.9.5,3.3,3.3,0,0,0,1.5.4,3.1,3.1,0,0,0,1.5-.4,3.7,3.7,0,0,1,1.8-.5,4.8,4.8,0,0,1,1.9.4c.6.3,1.8.8,1.3,2.1a1.4,1.4,0,0,1-.2,1.1.8.8,0,0,1-.7.3h0l-.9-.2-1.5-.3a3.5,3.5,0,0,0-1.6.4A3.6,3.6,0,0,1,22.2,23.4Z"/><path class="5acaabdd-8edf-4d85-ad1d-63ca93bf6790" d="M4.7,19.6a2.8,2.8,0,0,1,1.2.3,5.5,5.5,0,0,0,2.4.6,6.2,6.2,0,0,0,2.4-.5l1.2-.2a3.5,3.5,0,0,1,1.5.4,4,4,0,0,0,3.8,0,3.4,3.4,0,0,1,1.6-.4,3.6,3.6,0,0,1,1.7.4,3.8,3.8,0,0,0,1.7.5,3.6,3.6,0,0,0,1.8-.5,3.2,3.2,0,0,1,1.6-.4,4.3,4.3,0,0,1,1.7.4c.7.3,1.4.6,1,1.6s0,1-.3,1l-.7-.2a4.8,4.8,0,0,0-1.7-.3,3.9,3.9,0,0,0-1.9.5,3.1,3.1,0,0,1-1.5.4,4.1,4.1,0,0,1-1.7-.4,4.3,4.3,0,0,0-1.8-.4,4,4,0,0,0-1.7.4,4.1,4.1,0,0,1-1.7.4,4.5,4.5,0,0,1-1.8-.4,4.3,4.3,0,0,0-1.7-.4,4.1,4.1,0,0,0-1.7.4,4,4,0,0,1-1.7.4,4.1,4.1,0,0,1-1.7-.4,4.3,4.3,0,0,0-1.8-.4,4.1,4.1,0,0,0-1.8.4l-.5.2c-.2,0-.3-.2-.3-.6a2.4,2.4,0,0,1,2.5-2.5m0-1h0a3.6,3.6,0,0,0-2.5,1.1,3.3,3.3,0,0,0-1,2.4c0,1.5,1,1.6,1.3,1.6a2.1,2.1,0,0,0,.9-.3,3.1,3.1,0,0,1,1.4-.3,3.3,3.3,0,0,1,1.4.3,5.1,5.1,0,0,0,2.2.5,5,5,0,0,0,2.1-.5,3.1,3.1,0,0,1,1.3-.3l1.3.3a5.4,5.4,0,0,0,2.2.5,5.1,5.1,0,0,0,2.1-.5l1.3-.3a3.3,3.3,0,0,1,1.4.3,5.1,5.1,0,0,0,2.1.5,4.1,4.1,0,0,0,1.9-.5,2.9,2.9,0,0,1,1.4-.4l1.3.3,1,.2a1.3,1.3,0,0,0,1.1-.5,1.7,1.7,0,0,0,.3-1.4c.5-1.7-1.1-2.4-1.7-2.6a5.3,5.3,0,0,0-2.1-.5,4.2,4.2,0,0,0-2.1.5,2.6,2.6,0,0,1-1.3.4,2.8,2.8,0,0,1-1.3-.3,4.6,4.6,0,0,0-2.1-.5,4.5,4.5,0,0,0-2,.5,3,3,0,0,1-2.9,0,4.5,4.5,0,0,0-2-.5,4,4,0,0,0-1.5.3,5.2,5.2,0,0,1-2,.4,4.5,4.5,0,0,1-2-.5,3.8,3.8,0,0,0-1.7-.4Z"/><path class="3d5741f8-3daf-46dd-96d1-ed46aa6a5ae7" d="M15.3,28.6a4.1,4.1,0,0,1-1.9-.5,3,3,0,0,0-1.4-.4,3.6,3.6,0,0,0-1.5.3,5.1,5.1,0,0,1-2.1.5,4.3,4.3,0,0,1-2.2-.6A2.3,2.3,0,0,0,5,27.6a4,4,0,0,0-1.7.4l-.7.2c-.6,0-.8-.4-.9-1.2s.4-2.3,2-2.6H4.9a4.2,4.2,0,0,1,1.9.4,3.6,3.6,0,0,0,1.6.4,3,3,0,0,0,1.3-.3,4.6,4.6,0,0,1,4.3,0,2.7,2.7,0,0,0,1.2.3,3.8,3.8,0,0,0,1.6-.4,4.6,4.6,0,0,1,2-.5,4.7,4.7,0,0,1,2.1.5,3.1,3.1,0,0,0,1.4.3,2.8,2.8,0,0,0,1.4-.4,3.6,3.6,0,0,1,1.9-.5l1.4.2a2.1,2.1,0,0,1,1.9,2.4,1.3,1.3,0,0,1-.1,1.1.8.8,0,0,1-.6.3h0l-1-.3a3.6,3.6,0,0,0-1.5-.3,3.3,3.3,0,0,0-1.6.4,3.6,3.6,0,0,1-1.8.5,4,4,0,0,1-1.8-.5,3.3,3.3,0,0,0-1.5-.4,3.5,3.5,0,0,0-1.5.4A4.6,4.6,0,0,1,15.3,28.6Z"/><path class="5acaabdd-8edf-4d85-ad1d-63ca93bf6790" d="M25.5,24.8l1.3.2c1.1.2,1.4.7,1.5,2s0,.8-.2.8l-.7-.2a4.1,4.1,0,0,0-1.7-.4,3.7,3.7,0,0,0-1.8.5,3.1,3.1,0,0,1-1.5.4,3.5,3.5,0,0,1-1.6-.4,3.8,3.8,0,0,0-1.8-.5,4,4,0,0,0-1.8.4,4.1,4.1,0,0,1-1.8.5,3.6,3.6,0,0,1-1.7-.4,3.5,3.5,0,0,0-1.7-.4,4.1,4.1,0,0,0-1.7.4,4.7,4.7,0,0,1-1.9.5,3.9,3.9,0,0,1-1.9-.5A2.8,2.8,0,0,0,5,27.1a4.5,4.5,0,0,0-1.9.5H2.6c-.3,0-.3-.2-.4-.7s.2-1.8,1.6-2.1H4.9a3.7,3.7,0,0,1,1.7.4,4.1,4.1,0,0,0,1.8.5,3.5,3.5,0,0,0,1.5-.4,4.1,4.1,0,0,1,3.9,0,3.2,3.2,0,0,0,1.5.4,4.2,4.2,0,0,0,1.8-.4,4.1,4.1,0,0,1,1.8-.4,4.2,4.2,0,0,1,1.8.5,3.6,3.6,0,0,0,1.6.4,3.2,3.2,0,0,0,1.7-.5,3.1,3.1,0,0,1,1.6-.4m0-1v0a4.1,4.1,0,0,0-2.1.5,2.2,2.2,0,0,1-1.2.3l-1.1-.3a4.9,4.9,0,0,0-4.5,0,3.3,3.3,0,0,1-1.4.3l-1-.2a5.1,5.1,0,0,0-4.8-.1l-1.1.3A3.1,3.1,0,0,1,7,24.3a4.6,4.6,0,0,0-2.1-.5H3.7c-1.8.4-2.5,1.2-2.4,3.1s1,1.7,1.4,1.7l.9-.2A3.6,3.6,0,0,1,5,28.1l.9.2a4.9,4.9,0,0,0,2.4.7,5.6,5.6,0,0,0,2.3-.6l1.3-.3a2.5,2.5,0,0,1,1.2.3,4.6,4.6,0,0,0,2.2.6,5.2,5.2,0,0,0,2.2-.5,3,3,0,0,1,1.3-.3,2.8,2.8,0,0,1,1.3.3,4.5,4.5,0,0,0,2.1.5,4.1,4.1,0,0,0,2-.5,2.8,2.8,0,0,1,1.4-.4l1.3.3,1.2.3a1.3,1.3,0,0,0,1-.5,1.7,1.7,0,0,0,.2-1.5A2.6,2.6,0,0,0,27,24l-1.5-.2Z"/><path class="2676ccb8-3c0f-4dee-a2fb-9b180c1b01ed" d="M1.8,17.8c-.7,0-.8-.7-.9-1A13.2,13.2,0,0,1,4.3,4.6l.4-.2h.2a.5.5,0,0,1,.3.5c-.3,1.5-1.1,6.7.7,9.2a.5.5,0,0,1-.1.7l-3,2.4A1.5,1.5,0,0,1,1.8,17.8Z"/><path class="21243b5e-5907-4f4d-bd56-75d1eea15897" d="M4.6,4.9c-.3,1.9-1.1,7,.8,9.5l-3,2.4-.6.4c-.2,0-.3-.2-.4-.7A12.7,12.7,0,0,1,4.6,4.9m0-1a1,1,0,0,0-.7.3A13.7,13.7,0,0,0,.4,16.8c.2.9.7,1.4,1.4,1.4A2,2,0,0,0,3,17.7l3-2.4a1,1,0,0,0,.2-1.4C4.9,12,5.1,8.1,5.6,5.1A1,1,0,0,0,5.1,4Zm0,2h0Z"/><path class="3f24b615-a63f-49d9-b495-ad71e4fc934f" d="M16.7,6.2h-.1l-.3-.3c-.9-2.4-3.7-2.9-5.9-2.9a18.3,18.3,0,0,0-3.1.3H7.2a.5.5,0,0,1-.3-.9A12.2,12.2,0,0,1,10,1.1,14,14,0,0,1,13.9.5a14.9,14.9,0,0,1,5.8,1.3c.5.2,1,.4,1.1.9s-.4.8-.8,1.1L17,6.1Z"/><path class="21243b5e-5907-4f4d-bd56-75d1eea15897" d="M13.9,1a14.3,14.3,0,0,1,5.6,1.2c1,.4,1,.5.2,1.2l-3,2.3c-1-2.6-3.9-3.2-6.4-3.2a18.8,18.8,0,0,0-3.1.3,11.7,11.7,0,0,1,2.9-1.3A13.4,13.4,0,0,1,13.9,1m0-1h0a14.5,14.5,0,0,0-4,.6A12.6,12.6,0,0,0,6.7,2a1,1,0,0,0,.5,1.8h.2a17.7,17.7,0,0,1,3-.3c2,0,4.7.4,5.5,2.5a1,1,0,0,0,.7.6h.3l.6-.2,1.5-1.1,1.5-1.2c.5-.4,1.1-.8,1-1.6s-.8-1.1-1.4-1.3a15.4,15.4,0,0,0-6-1.3Z"/></g></g></svg>