<svg xmlns="http://www.w3.org/2000/svg" viewBox="0 0 43.4 43.4"><defs><style>.a2469710-a95b-43b1-b2bd-a966e2884c4e{fill:#ffbc04;}.\35 ac8b4b9-a386-4bda-a5c2-42d82b2208fd{fill:#720000;}.\35 5ad44b8-9163-4ce2-ac36-961bbb4aaba0{fill:#2e3192;}.fddffb94-2574-4316-8d8b-a80833b58f95{fill:#42210b;}.\39 9336eff-5bdb-44ac-b002-c2166af35f37{fill:#0e1354;}.e11832ae-6297-4b83-ae81-509b8f025689{fill:#c70e09;}.\30 16b20c2-38f4-46ed-b5a6-0cadec68e679{fill:#910000;}.\30 54dbcf5-1a99-4588-af43-82bdaeb0579c{fill:#966b00;}.\35 01f561c-1d41-4389-95df-55a62e9e8896{fill:#ba6d2f;}.\36 c9e2fd3-6012-481a-a0ed-1c48c432da0d{fill:#603813;}.\39 138e243-b29b-4008-8c38-3555c2d68d88{fill:#006e8c;}.ff26bfeb-7895-45a3-90ca-724fa1c14cdb{fill:#29abe2;}.\36 c8a6397-6728-4705-8c3f-c547b82b3997{fill:#e6e6e6;}.\38 c1c004b-f71c-4407-854c-cec2a86a4a1a{fill:#664600;}</style></defs><title>icono-afiliacion-academias</title><g id="955d9224-d9b4-4080-ab0a-04590b575066" data-name="Capa 2"><g id="4e2472ac-91a4-4856-9dcc-bf858d79394e" data-name="Editar cosas"><circle class="a2469710-a95b-43b1-b2bd-a966e2884c4e" cx="21.7" cy="21.7" r="21.7"/><rect class="5ac8b4b9-a386-4bda-a5c2-42d82b2208fd" x="13.9" y="20.2" width="3.1" height="3.72"/><rect class="5ac8b4b9-a386-4bda-a5c2-42d82b2208fd" x="14.9" y="19.6" width="15.5" height="2.88"/><rect class="5ac8b4b9-a386-4bda-a5c2-42d82b2208fd" x="25.6" y="21.1" width="5.8" height="2.88"/><rect class="5ac8b4b9-a386-4bda-a5c2-42d82b2208fd" x="17.5" y="20.1" width="8.9" height="2.88"/><rect class="55ad44b8-9163-4ce2-ac36-961bbb4aaba0" x="9.6" y="24.2" width="6.1" height="4.31"/><rect class="fddffb94-2574-4316-8d8b-a80833b58f95" x="15.7" y="22.3" width="12.3" height="7.35"/><rect class="99336eff-5bdb-44ac-b002-c2166af35f37" x="27.3" y="24.2" width="6.3" height="4.31"/><polygon class="5ac8b4b9-a386-4bda-a5c2-42d82b2208fd" points="26.4 21.1 16.7 21.1 20.8 17.4 22.3 17.4 26.4 21.1"/><path class="e11832ae-6297-4b83-ae81-509b8f025689" d="M21.5,16.3v1.5h-.2l-3.4,2.8-2.6,2.1h-.1s0-.1,0-.1V21.5a.3.3,0,0,1,.1-.2l4.2-3.5.5-.4,1.3-1h.2Z"/><path class="016b20c2-38f4-46ed-b5a6-0cadec68e679" d="M34.1,23.9H27c0-.1,0-.2,0-.3s0-.2.2-.2.2-.1.2-.2,0-.2.1-.2h.2l1,.7h.1c.1,0,.1-.1.1-.1s0-1.4,0-2.1a.3.3,0,0,0-.1-.2l-1.9-1.4h6.3c.2,0,.3.1.3.3l.6,3.8Z"/><path class="e11832ae-6297-4b83-ae81-509b8f025689" d="M16.6,19.9l-1.7,1.4a.3.3,0,0,0-.1.3c0,.7,0,1.4,0,2.1s0,.1,0,.2H15l.6-.5c.1-.1.2-.1.2.1s.1.2.2.2.3.1.3.3v.2H9.1c.1-.5.2-1,.2-1.5L9.7,20c.1-.4,0-.4.4-.4h6.6C16.7,19.8,16.6,19.8,16.6,19.9Z"/><path class="054dbcf5-1a99-4588-af43-82bdaeb0579c" d="M34.9,31.1c0,.2-.1.2-.2.2H8.8V29.2H34.4c.6,0,.5,0,.5.5S34.9,30.6,34.9,31.1Z"/><path class="501f561c-1d41-4389-95df-55a62e9e8896" d="M21.5,23.4v5.8H18.1c.1,0,.1-.1.1-.2V23.7c0-.3,0-.3.3-.3Z"/><path class="6c9e2fd3-6012-481a-a0ed-1c48c432da0d" d="M24.9,29.2H21.5V23.4h3.1c.3,0,.3,0,.3.3V29Z"/><path class="9138e243-b29b-4008-8c38-3555c2d68d88" d="M34.1,28.9v-5H27c0,.3,0,.7,0,1s0,2.7,0,4,0,.2-.1.2h7.2S34.1,29.1,34.1,28.9Zm-3.3-4c0-.1.1-.2.2-.2h1.9c.1,0,.2,0,.2.2s0,.6,0,.9-.1.2-.2.2H31c-.2,0-.2-.1-.2-.2S30.8,25.2,30.8,25Zm-3.3,0c0-.1.1-.2.2-.2h1.9c.1,0,.2.1.2.2s0,.6,0,.9-.1.2-.2.2H27.7c-.2,0-.2-.1-.2-.2S27.5,25.3,27.5,25Zm2.3,2.9c0,.1-.1.2-.2.2H27.7c-.1,0-.2-.1-.2-.2s0-.6,0-.9.1-.2.2-.2h1.9c.1,0,.2,0,.2.2S29.8,27.6,29.8,27.9Zm3.3,0c0,.1,0,.2-.2.2H31c-.1,0-.2-.1-.2-.2s0-.5,0-.8,0-.2.2-.2h1.9c.2,0,.2.1.2.2S33.1,27.6,33.1,27.8Z"/><path class="ff26bfeb-7895-45a3-90ca-724fa1c14cdb" d="M16.2,28.9c0-1.7,0-3.4,0-5H9.1a4.7,4.7,0,0,0,0,.5c0,1.5,0,3,0,4.5s0,.2-.1.3h7.3C16.2,29.1,16.2,29,16.2,28.9Zm-4.1-1c0,.2-.1.2-.2.2H10.1c-.1,0-.2,0-.2-.2s0-.5,0-.8,0-.2.2-.2H12c.1,0,.2,0,.2.2S12.2,27.7,12.2,28Zm0-2c0,.2-.1.2-.2.2H10.1c-.1,0-.2,0-.2-.2s0-.5,0-.8,0-.2.2-.2H12c.1,0,.2,0,.2.2S12.2,25.7,12.2,25.9ZM15.5,28c0,.1-.1.2-.2.2H13.4c-.1,0-.2,0-.2-.2s0-.6,0-.8,0-.2.2-.2h1.9c.1,0,.2,0,.2.2S15.5,27.7,15.5,28Zm-.2-1.9H13.4c-.2,0-.2,0-.2-.2s0-.5,0-.8,0-.2.2-.2h1.9c.1,0,.2,0,.2.2s0,.6,0,.9S15.4,26.1,15.3,26.1Z"/><path class="ff26bfeb-7895-45a3-90ca-724fa1c14cdb" d="M17.8,29.2H16.6s.1-.1.1-.2q0-2.5,0-5.1c0-.3,0-.5,0-.8v-.2h1.2a.4.4,0,0,0,0,.2v.7c0,.8,0,1.7,0,2.5s0,1.7,0,2.6S17.8,29.2,17.8,29.2Z"/><path class="9138e243-b29b-4008-8c38-3555c2d68d88" d="M25.3,23.9v-.8a.6.6,0,0,0,0-.2h1.3s0,.1,0,.1v.8q0,2.5,0,5.1c0,.1,0,.2,0,.2H25.2a.3.3,0,0,0,.1-.2Q25.3,26.4,25.3,23.9Z"/><path class="6c9e2fd3-6012-481a-a0ed-1c48c432da0d" d="M21.7,16.3h-.3q0-1.8,0-3.6c0-.1,0-.2.1-.2h.3v2.2c0,.1,0,.3,0,.4A7.9,7.9,0,0,1,21.7,16.3Z"/><path class="e11832ae-6297-4b83-ae81-509b8f025689" d="M24.8,14c0,.1,0,.2-.2.1a1.2,1.2,0,0,0-1.5.1,1.2,1.2,0,0,1-1.2.1c-.2-.1-.2-.1-.2.2h0V12.5h0a1.6,1.6,0,0,0,1.1.2h.3a1.2,1.2,0,0,1,1.4-.2.4.4,0,0,1,.3.4C24.8,13.1,24.8,13.6,24.8,14Z"/><path class="6c8a6397-6728-4705-8c3f-c547b82b3997" d="M23.6,12.2V14l-.5.3-.5.2V12.7h.4Z"/><path class="e11832ae-6297-4b83-ae81-509b8f025689" d="M21.5,20.1V18.4h-.1L20,19.6l-3,2.3c-.2.1-.8.6-.8.7s0,.3.3.3H18c.1,0,.2,0,.2-.2s.1-.1.2-.1h3v-.8a.8.8,0,0,1-.8-.9A.9.9,0,0,1,21.5,20.1Z"/><path class="016b20c2-38f4-46ed-b5a6-0cadec68e679" d="M27.1,22.5c0,.3,0,.3-.3.3H25c0-.2-.2-.2-.3-.2H21.5v-.8h.1a.9.9,0,1,0,0-1.7h-.1V18.4h.2l2.4,1.8,2.2,1.6Z"/><path class="016b20c2-38f4-46ed-b5a6-0cadec68e679" d="M28.5,22.7c0,.1,0,.1,0,.2h-.2l-2.8-2.1-3.9-2.9h-.1V16.3h.3l1.9,1.4h0l3.8,2.8.9.6a.3.3,0,0,1,.1.3C28.5,21.9,28.5,22.3,28.5,22.7Z"/><path class="8c1c004b-f71c-4407-854c-cec2a86a4a1a" d="M34.9,29.7c0,.5,0,.9,0,1.4s0,.3-.2.2H21.5V29.2H34.4C35,29.2,34.9,29.2,34.9,29.7Z"/></g></g></svg>