<svg xmlns="http://www.w3.org/2000/svg" viewBox="0 0 16 31.9"><defs><style>.\32 3b62dd1-00d8-41ce-a1dd-f47e51226932,.\35 269c89d-c7da-41c7-b9c1-9707b1821217,.\39 5ba7eed-3d3c-456d-80f1-a0e767ae01c9{fill:#fff;}.\35 269c89d-c7da-41c7-b9c1-9707b1821217{opacity:0.5;}.\32 3b62dd1-00d8-41ce-a1dd-f47e51226932{opacity:0.2;}</style></defs><title>tres-flechas-abajo</title><g id="7d1751dd-610f-4755-9250-ad077b837500" data-name="Capa 2"><g id="f47bd91b-c383-4c9a-8ab1-c38a2c5c763a" data-name="Editar cosas"><path class="95ba7eed-3d3c-456d-80f1-a0e767ae01c9" d="M0,25.2H0a1.5,1.5,0,0,1,2.4-1.3L8,27.9l5.5-3.9A1.5,1.5,0,0,1,16,25.2h0a1.5,1.5,0,0,1-.6,1.2L9.2,31.5a2,2,0,0,1-2.5,0L.6,26.4A1.5,1.5,0,0,1,0,25.2Z"/><path class="5269c89d-c7da-41c7-b9c1-9707b1821217" d="M0,13.4H0a1.5,1.5,0,0,1,2.4-1.3L8,16l5.5-3.9A1.5,1.5,0,0,1,16,13.4h0a1.5,1.5,0,0,1-.6,1.2L9.2,19.7a2,2,0,0,1-2.5,0L.6,14.6A1.5,1.5,0,0,1,0,13.4Z"/><path class="23b62dd1-00d8-41ce-a1dd-f47e51226932" d="M0,1.5H0A1.5,1.5,0,0,1,2.4.3L8,4.2,13.5.3A1.5,1.5,0,0,1,16,1.5h0a1.5,1.5,0,0,1-.6,1.2L9.2,7.8a2,2,0,0,1-2.5,0L.6,2.7A1.5,1.5,0,0,1,0,1.5Z"/></g></g></svg>