<svg xmlns="http://www.w3.org/2000/svg" viewBox="0 0 30.7 30.7"><defs><style>.\33 4ecdc63-75e1-408f-8ed2-848ae00fae55{fill:#fff;}.\34 e412095-b579-47cd-adb0-95d524000a73{fill:#201e1e;}.d2e27566-f37c-44a1-b1b3-5d2bb53b9d05{fill:#ec3439;}.ba696c23-0cce-4846-94b3-98497153b7e3{fill:#222020;}.\30 f4075b8-5ab3-4d43-a75a-b8e7704f6574{fill:#f7f7f7;}</style></defs><title>icono-title</title><g id="f0c63e3f-5214-4e44-abd5-addcc9be73cc" data-name="Capa 2"><g id="50c37a40-c7bf-489c-a21a-6c502e3f3836" data-name="Editar cosas"><circle class="34ecdc63-75e1-408f-8ed2-848ae00fae55" cx="15.3" cy="15.3" r="15.3"/><path class="4e412095-b579-47cd-adb0-95d524000a73" d="M12.8,23.7c-.2-.3.1-.4.2-.5a7,7,0,0,1,1.6-1.3l3.5-2.2a35.6,35.6,0,0,0,3.5-2.4,3.5,3.5,0,0,0,1.2-4,4.8,4.8,0,0,0-3.6-3.6,4.9,4.9,0,0,0-4.9,1.4l-.4.3h-.1a9.7,9.7,0,0,1,2-2.8,4.1,4.1,0,0,1,4.8-.8,8.1,8.1,0,0,1,4.7,6.5,3.1,3.1,0,0,1-1.6,3.2c-2.7,1.8-5.6,3.3-8.4,4.9l-2.6,1.4Z"/><path class="d2e27566-f37c-44a1-b1b3-5d2bb53b9d05" d="M11.5,6.7a10.1,10.1,0,0,1,5.2-.3l.7.2a7.3,7.3,0,0,0-5.3,3.1l-2.2,3a8,8,0,0,1-1.7,1.9,1.2,1.2,0,0,1-1.6,0A1.5,1.5,0,0,1,6,12.8a5,5,0,0,1,.7-1.7A14.1,14.1,0,0,1,11.1,7C11.2,6.9,11.4,6.8,11.5,6.7Z"/><path class="4e412095-b579-47cd-adb0-95d524000a73" d="M11.5,6.7c-.1.2-.3.2-.4.3a14.1,14.1,0,0,0-4.3,4.1A5,5,0,0,0,6,12.8a1.5,1.5,0,0,0,.6,1.7,1.2,1.2,0,0,0,1.6,0A8,8,0,0,0,10,12.6l2.2-3a7.3,7.3,0,0,1,5.3-3.1h.4l-1.6.7a6.8,6.8,0,0,0-3.5,3.4A16,16,0,0,1,10,14.8a5.3,5.3,0,0,1-2.7,1.7,1.8,1.8,0,0,1-2.5-1.9,6,6,0,0,1,.4-2.6A9.1,9.1,0,0,1,11.5,6.7Z"/><path class="d2e27566-f37c-44a1-b1b3-5d2bb53b9d05" d="M17.9,23.7a12.3,12.3,0,0,1-4.3.3c2.3-1,4.6-2.3,6.8-3.4.1,0,.2,0,.2-.1h0c.6.1,1.1-.3,1.7-.2a1.4,1.4,0,0,1-.3.6,7.2,7.2,0,0,1-2.1,1.8l-1.7,1h-.3Z"/><path class="4e412095-b579-47cd-adb0-95d524000a73" d="M9.4,22.7A8.8,8.8,0,0,1,5,17.4a7.1,7.1,0,0,0,6-2c.1.3-.1.5-.3.6A6.6,6.6,0,0,1,7,18.4c-.5.1-.5.3-.3.7a8,8,0,0,0,2.4,3.2C9.2,22.4,9.4,22.4,9.4,22.7Z"/><path class="4e412095-b579-47cd-adb0-95d524000a73" d="M18.2,23.6l1.7-1A7.2,7.2,0,0,0,22,20.9a1.4,1.4,0,0,0,.3-.6c-.6-.1-1.1.3-1.7.2,1.3-.9,2.8-1.6,4.1-2.6s-.1.4-.1.5a9.9,9.9,0,0,1-5.6,5A1.6,1.6,0,0,1,18.2,23.6Z"/><path class="ba696c23-0cce-4846-94b3-98497153b7e3" d="M17.9,23.7h.3C18.1,23.7,18,23.7,17.9,23.7Z"/><path class="ba696c23-0cce-4846-94b3-98497153b7e3" d="M20.6,20.5c0,.1-.1.1-.2.1Z"/><path class="ba696c23-0cce-4846-94b3-98497153b7e3" d="M12.8,23.7h0Z"/><path class="0f4075b8-5ab3-4d43-a75a-b8e7704f6574" d="M21.6,17.2a35.6,35.6,0,0,1-3.5,2.4l-3.5,2.2A7,7,0,0,0,13,23.2c-.1.1-.3.2-.2.4a7.9,7.9,0,0,1-3.9-1.2l.6.4c0-.3-.3-.4-.4-.5a8,8,0,0,1-2.4-3.2c-.2-.4-.2-.5.3-.7A6.6,6.6,0,0,0,10.8,16c.1-.2.3-.3.3-.6l2.9-4h0l.4-.3a4.9,4.9,0,0,1,4.9-1.4,4.8,4.8,0,0,1,3.6,3.6A3.5,3.5,0,0,1,21.6,17.2Z"/></g></g></svg>