<svg xmlns="http://www.w3.org/2000/svg" xmlns:xlink="http://www.w3.org/1999/xlink" viewBox="0 0 151.6 73.6"><defs><style>.\30 9e68dd8-63fe-40be-9a32-a4822b323698{fill:#f7f7f7;}.\34 2d3554a-a2c4-4d7d-80d2-36468c268cb8{fill:#e20613;}.dcab20c5-ec40-4d88-a86d-dfc0c06b6884{fill:#ededed;}.\35 49fb4d5-ad44-43ae-a144-8f0620441f86{fill:url(#7c5d449a-0816-4315-9a15-ae0a0d7f5717);}</style><linearGradient id="7c5d449a-0816-4315-9a15-ae0a0d7f5717" x1="25.75" y1="8.85" x2="147.4" y2="25.61" gradientUnits="userSpaceOnUse"><stop offset="0" stop-color="#ededed" stop-opacity="0"/><stop offset="1" stop-color="#ededed"/></linearGradient></defs><title>logo-federacion</title><g id="f7e65c40-aad9-41d0-acd6-488d15f1cf57" data-name="Capa 2"><g id="684e6e7d-6b96-4623-9acd-26397c54325f" data-name="Cabecera"><path class="09e68dd8-63fe-40be-9a32-a4822b323698" d="M72.8,54.1H61.7c-.8,0-.8,0-.8-.8,0-5.1,0-10.3,0-15.4A7.8,7.8,0,0,1,62.3,33a9.4,9.4,0,0,1,3.5-2.6H82a20.8,20.8,0,0,1,5.4.6A6,6,0,0,1,92,35.8a35.1,35.1,0,0,1,.5,9.1,21.9,21.9,0,0,1-.4,3.7,6.5,6.5,0,0,1-6,5.4,66.7,66.7,0,0,1-6.9.2Zm2.5-5.9h6.3c2,0,3-.8,3.3-2.8a12.6,12.6,0,0,0,.1-1.7,16.4,16.4,0,0,0-.4-5.2,2.6,2.6,0,0,0-1.9-1.9,8.2,8.2,0,0,0-2.1-.2H69c-.5,0-.6.2-.6.7q0,5.2,0,10.4c0,.5.2.7.7.7Z"/><path class="09e68dd8-63fe-40be-9a32-a4822b323698" d="M94.8,44.4c0-2.9,0-5.9,0-8.8a5.5,5.5,0,0,1,1.5-3.8,4.3,4.3,0,0,1,3.3-1.4h14.9a18.3,18.3,0,0,1,4.4.4,5.4,5.4,0,0,1,4.2,4.4,19.6,19.6,0,0,1-.1,8.5,5.3,5.3,0,0,1-4.9,4.3,27.9,27.9,0,0,1-3.8.2H103c-.7,0-.7,0-.7.7s0,3,0,4.4-.2.7-.7.7H95.5c-.5,0-.7-.2-.7-.7,0-3,0-6,0-9Zm13.4-8h-5.4c-.4,0-.6.1-.6.6s0,3.2,0,4.8.2.6.6.6H113l1.6-.2a1.8,1.8,0,0,0,1.4-1.4,5.7,5.7,0,0,0,.1-1.9c-.1-1.8-.8-2.5-2.7-2.6Z"/><path class="42d3554a-a2c4-4d7d-80d2-36468c268cb8" d="M111.2,10.4l-2.6-.7-7.7-1.7L93.5,6.8l-3.9-.5-5.3-.5-6-.4c-3-.3-6.1-.1-9.1-.2s-4.4,0-6.7.1l-3.8.2L53.6,6l-7.4,1-7,1.2c-2.6.5-5.2,1.1-7.8,1.8s-2.6.7-3.9,1.1a1.1,1.1,0,0,1-1.2-.2,21.9,21.9,0,0,0-7.3-4.4l-.4-.2c.3-.4.8-.4,1.2-.5a92.9,92.9,0,0,1,9.2-2.6l6.1-1.2,4.7-.8L45.9.5,50.4.2C54.8-.1,59.3.1,63.8.1l1.8.2c-.1.3-.3.2-.4.2H64.1c-1.7-.1-3.5.2-5.2.3l-6.2.5-4.8.5-4.7.8c-2.1.3-4.1.7-6.1,1.2l-4,1-1.5.4a3.4,3.4,0,0,0,1.7-.2l5.1-1,3.1-.6L45,2.8l4.1-.5L51.7,2l6-.5,6-.3c3.9-.3,7.8-.1,11.6-.1a24,24,0,0,1,4.3.5l2.8.5,5.2,1,6.9,1.6,3.9,1.1c3,.8,5.9,1.8,8.8,2.8l3.5,1.3C110.9,10,111.1,10.1,111.2,10.4Z"/><path class="09e68dd8-63fe-40be-9a32-a4822b323698" d="M34,42.2q0-5.6,0-11.1c0-.7,0-.7.7-.7H54.5l2,.3a3.3,3.3,0,0,1,2.4,2.3,7.5,7.5,0,0,1,.3,2.5c0,.4-.2.5-.5.5H42.1c-.6,0-.7.2-.7.7s0,2,0,3,0,.7.7.7H57.9c.3,0,.5.2.5.5s0,3,0,4.6-.3.5-.7.5H42.1c-.5,0-.6.2-.6.7,0,2.3,0,4.6,0,6.8,0,.7,0,.7-.7.7h-6c-.7,0-.7,0-.7-.7Q34,47.8,34,42.2Z"/><path class="42d3554a-a2c4-4d7d-80d2-36468c268cb8" d="M116,21.9l-2.9-.5-3.5-.6-6-.8-4.4-.4-7.5-.6-5.3-.4c-5.7-.5-11.3-.4-17-.4-2.2,0-4.5.2-6.7.3l-7.1.7-6.4,1-2.2.5a11.2,11.2,0,0,0,2-.3l2.2-.3,5-.6,3.9-.3,5.1-.3c3.9-.3,7.8-.1,11.7-.1h1.4c.2,0,.5-.1.5.2s-.3.2-.4.2H75.6l-4.5.3-5.5.5-4.2.6-3.1.5-3.1.5-4.9,1-4.5,1-5.1,1.4L34.8,27c-.5.2-.6.1-.7-.4A23.6,23.6,0,0,0,33,20.7c-.2-.6-.2-.6.4-.8l6.1-1.6,4.6-1,5.1-.9,1.8-.2,4.2-.5,5.5-.5,4.2-.2a86.9,86.9,0,0,1,9.5-.1l5,.2,6.8.6,6.1.8,5.6.9,6.9,1.5,4.1,1,5.7,1.6A1.9,1.9,0,0,1,116,21.9Z"/><path class="09e68dd8-63fe-40be-9a32-a4822b323698" d="M136.9,30.4h13.8c.8,0,.8,0,.8.8s0,3.1,0,4.7-.2.6-.6.6h-9c-.8,0-.8,0-.8.8q0,8,0,16c0,.9,0,.9-.8.9h-5.9c-.7,0-.7,0-.7-.7q0-8.1,0-16.1c0-.8,0-.8-.8-.8H126c-.7,0-.7,0-.8-.7a7.1,7.1,0,0,0-2.5-4.9c-.1-.1-.4-.2-.3-.4s.3-.1.5-.1Z"/><path d="M24.8,12.2a6.1,6.1,0,0,0-8.1.9,14.9,14.9,0,0,0-2.9,4.4,17.2,17.2,0,0,1-.8,2,62.4,62.4,0,0,1-3.6,5.3A9.6,9.6,0,0,1,.8,28.5c-.7,0-.7,0-.5.6A14.3,14.3,0,0,0,3,34.5a14.6,14.6,0,0,0,8.1,5.1,1.2,1.2,0,0,0,1-.2l6.6-4c3.4-2.1,6.7-4.2,9.9-6.6a5.9,5.9,0,0,0,2.5-5.1A15.3,15.3,0,0,0,24.8,12.2Zm-.3,16.5c-3,2.6-6.4,4.6-9.5,7a12.3,12.3,0,0,0-3.3,3.2.6.6,0,0,1-.7.3,9.6,9.6,0,0,1-5.3-3.1,13,13,0,0,1-2.8-4.9c-.1-.3-.1-.5.3-.6a11.5,11.5,0,0,0,5.1-3.1,5.7,5.7,0,0,0,1-1.4,22.2,22.2,0,0,1,1.6-2.6l3.4-5.3a6.6,6.6,0,0,1,4.3-2.9,6.7,6.7,0,0,1,7,3,9.3,9.3,0,0,1,1.6,5.4C27.3,25.6,26.2,27.3,24.6,28.7Z"/><path class="dcab20c5-ec40-4d88-a86d-dfc0c06b6884" d="M24.6,28.7c-3,2.6-6.4,4.6-9.5,7a12.3,12.3,0,0,0-3.3,3.2.6.6,0,0,1-.7.3,9.6,9.6,0,0,1-5.3-3.1,13,13,0,0,1-2.8-4.9c-.1-.3-.1-.5.3-.6a11.5,11.5,0,0,0,5.1-3.1,5.7,5.7,0,0,0,1-1.4,22.2,22.2,0,0,1,1.6-2.6l3.4-5.3a6.6,6.6,0,0,1,4.3-2.9,6.7,6.7,0,0,1,7,3,9.3,9.3,0,0,1,1.6,5.4C27.3,25.6,26.2,27.3,24.6,28.7Z"/><path d="M19.6,10l-.8.3a12.7,12.7,0,0,0-5,3.4,14.8,14.8,0,0,0-2,3.7,30.5,30.5,0,0,1-3.9,6.6,9.2,9.2,0,0,1-3.2,2.7,4.2,4.2,0,0,1-1.4.4c-1.9.2-3.2-1-3.3-3.2a13.4,13.4,0,0,1,2.6-8.4A15.8,15.8,0,0,1,9.9,10a12.4,12.4,0,0,1,4.7-.7A36,36,0,0,1,19.6,10Z"/><path d="M30.1,29.3a16.6,16.6,0,0,1-7.3,9A15.6,15.6,0,0,1,12.4,40,84.3,84.3,0,0,0,30.1,29.3Z"/><path class="09e68dd8-63fe-40be-9a32-a4822b323698" d="M66.1,61.6c1.1.6.9,1.8,1.1,2.8s.2-.3.3-.5l2.2-5.4a.8.8,0,0,1,1-.6c.5,0,.8.1,1,.6l2.2,5.6c.1.4.1.5-.3.5a.9.9,0,0,1-1-.7c-.4-1.1-.2-1-1.4-1H69.6a.6.6,0,0,0-.7.5c-.2,1-.7,1.3-1.7,1.2s-1.1.2-1.3-1.2a1.5,1.5,0,0,0-1.7-1.5c-1.7,0-1.4-.2-1.4,1.4s0,.4,0,.6,0,.8-.8.7-.4-.1-.4-.4q0-2.9,0-5.8A.4.4,0,0,1,62,58a31.9,31.9,0,0,1,3.4,0c1.1.1,1.6.5,1.8,1.4S67.1,61,66.1,61.6Zm-1.9-.7h1.1a.9.9,0,0,0,.8-1,.9.9,0,0,0-.8-.9H63.4c-.5,0-.6.1-.6.6S62.6,60.9,64.1,60.9Zm6.6-1.7h-.1l-1,2.5c-.1.2-.1.4.2.4h1.5c.2,0,.4-.1.3-.3Z"/><path class="09e68dd8-63fe-40be-9a32-a4822b323698" d="M126.1,71.7c0-1.4,0-2.8,0-4.3s.1-.7.7-.7.5.2.4.5q0,2.9,0,5.7c0,.4-.2.4-.5.5a1.2,1.2,0,0,1-1.3-.6c-.8-1.4-1.7-2.7-2.6-4.1l-.3-.4c0,.8,0,1.4,0,2s0,1.6,0,2.4,0,.7-.7.6-.4-.1-.4-.4q0-2.9,0-5.8c0-.3.1-.4.5-.5a1.2,1.2,0,0,1,1.3.7l2.7,4.3Z"/><path class="09e68dd8-63fe-40be-9a32-a4822b323698" d="M85.3,71.7c0-1.5,0-2.9,0-4.4s.2-.6.6-.6.6.2.6.6,0,3.5,0,5.3c0,.3.1.6-.2.8a1.2,1.2,0,0,1-1.3-.3l-2.1-3.2-1-1.5c0,.5,0,.8,0,1.1s0,2.3,0,3.4-.1.6-.5.6-.6-.2-.6-.6,0-3.7,0-5.5.1-.5.5-.6a1.2,1.2,0,0,1,1.3.7l2.7,4.3Z"/><path class="09e68dd8-63fe-40be-9a32-a4822b323698" d="M89.6,59.7c0,1.5,0,2.9,0,4.3s-.2.6-.6.6-.5-.3-.5-.6,0-3.5,0-5.3c0-.3-.1-.6.3-.7a1.2,1.2,0,0,1,1.3.3l2.6,4.1a1.3,1.3,0,0,0,.4.5c0-1.1,0-2.2,0-3.3s0-.7,0-1,.1-.6.6-.6.6.2.6.6,0,3.5,0,5.3c0,.3.1.7-.3.7s-1,.2-1.3-.3l-2.7-4.2C89.8,60,89.8,59.8,89.6,59.7Z"/><path class="09e68dd8-63fe-40be-9a32-a4822b323698" d="M61.7,70.1c0-.9,0-1.8,0-2.7s.1-.6.6-.6a30.6,30.6,0,0,1,3.5.1,1.7,1.7,0,0,1,1.5,1.4,1.7,1.7,0,0,1-.8,1.9c-.2.1-.4.2-.1.4a1.9,1.9,0,0,1,.7,1.6c0,.2,0,.4.1.5s.1.8-.7.8-.4-.1-.4-.4v-.8a1.5,1.5,0,0,0-1.5-1.5H63.4c-.3,0-.5.2-.5.5s0,.9,0,1.4,0,.9-.6.9-.6-.5-.6-.9S61.7,70.9,61.7,70.1Zm2.5-.4h1a.9.9,0,0,0,.8-1c0-.5-.3-.8-.8-.9H63.5c-.5,0-.7.2-.6.7S62.7,69.7,64.2,69.7Z"/><path class="09e68dd8-63fe-40be-9a32-a4822b323698" d="M122.3,61.3c0-.9,0-1.9,0-2.8s.1-.5.4-.5a27.7,27.7,0,0,1,3.7.1,1.6,1.6,0,0,1,1.5,1.4,1.7,1.7,0,0,1-.8,2c-.3.2-.2.3,0,.4s.7,1.7.7,2.6-.3.2-.5.2-.5,0-.6-.3v-.8a1.5,1.5,0,0,0-1.7-1.6c-1.7,0-1.4-.2-1.4,1.4s0,.4,0,.6,0,.7-.7.7-.5-.2-.5-.5S122.2,62.3,122.3,61.3Zm2.6-.4h1.1a.9.9,0,0,0,.8-.9.9.9,0,0,0-.8-.9h-1.8c-.5,0-.6.2-.6.6S123.3,60.9,124.8,60.9Z"/><path class="09e68dd8-63fe-40be-9a32-a4822b323698" d="M96.1,70.1c0-.9,0-1.8,0-2.7s.1-.7.6-.6h2.5a2.7,2.7,0,0,1,2.8,2.7,5.8,5.8,0,0,1-.2,2.2,2.3,2.3,0,0,1-2.3,1.7H96.7c-.4,0-.6-.2-.6-.6S96.1,71,96.1,70.1Zm1.2,0v.8c0,1.8.1,1.9,1.9,1.6a1.5,1.5,0,0,0,1.4-1.3,4.9,4.9,0,0,0,0-2,1.5,1.5,0,0,0-1.5-1.4H97.9c-.4,0-.5.2-.5.5S97.3,69.5,97.3,70.1Z"/><path class="09e68dd8-63fe-40be-9a32-a4822b323698" d="M49.4,61.3c0-.9,0-1.8,0-2.8s.1-.6.6-.6h3a2.4,2.4,0,0,1,2.2,2,5,5,0,0,1-.1,3A2.2,2.2,0,0,1,53,64.6h-3c-.4,0-.5-.2-.5-.5S49.4,62.3,49.4,61.3Zm1.2,0h0q0,.9,0,1.9s0,0,0,.1.1.5.5.5h1.3a1.6,1.6,0,0,0,1.6-1.6,7,7,0,0,0,0-1.6A1.6,1.6,0,0,0,52.5,59H51.1c-.3,0-.4.2-.4.5S50.6,60.6,50.6,61.3Z"/><path class="09e68dd8-63fe-40be-9a32-a4822b323698" d="M97.6,61.3c0-.9,0-1.8,0-2.7s.1-.7.6-.6h3a2.4,2.4,0,0,1,2.1,1.8,4.9,4.9,0,0,1-.1,3.1,2.3,2.3,0,0,1-2.2,1.7H98.1c-.4,0-.5-.2-.5-.5s0-1.9,0-2.9Zm1.2,0c0,.7,0,1.3,0,2s.1.5.4.5h1.4a1.6,1.6,0,0,0,1.6-1.3,5,5,0,0,0,0-2,1.5,1.5,0,0,0-1.5-1.3H99.2c-.3,0-.5.1-.5.5S98.7,60.6,98.7,61.3Z"/><path class="09e68dd8-63fe-40be-9a32-a4822b323698" d="M87.8,61.3a3.3,3.3,0,0,1-1,2.7,4.1,4.1,0,0,1-4.3.2c-1.6-1.1-1.6-4.8.1-5.8a3.7,3.7,0,0,1,4,0,2.8,2.8,0,0,1,1.2,2.4A5.2,5.2,0,0,1,87.8,61.3Zm-1.2.1a4.8,4.8,0,0,0-.1-1.2,1.6,1.6,0,0,0-1.8-1.3c-1.1,0-1.8.4-2,1.3a4.8,4.8,0,0,0,0,2.4A1.5,1.5,0,0,0,84,63.7c1.6.4,2.6-.3,2.6-2C86.6,61.6,86.6,61.5,86.6,61.4Z"/><path class="09e68dd8-63fe-40be-9a32-a4822b323698" d="M121.6,61.5c0,.2,0,.5-.1.9a2.7,2.7,0,0,1-2.5,2.3,4.9,4.9,0,0,1-1.9-.1,2.7,2.7,0,0,1-1.9-2.6,5.5,5.5,0,0,1,0-1.4,3.4,3.4,0,0,1,5.4-2.1C121.5,59.3,121.6,60.3,121.6,61.5Zm-1.3-.1a4.8,4.8,0,0,0-.1-1.2,1.6,1.6,0,0,0-1.7-1.3c-1.1,0-1.8.3-2,1.2a4.8,4.8,0,0,0,0,2.5,1.5,1.5,0,0,0,1.1,1.1,1.9,1.9,0,0,0,2.8-1.9C120.4,61.6,120.4,61.5,120.4,61.4Z"/><path class="09e68dd8-63fe-40be-9a32-a4822b323698" d="M132.3,73.4h-1.4c-.3,0-.6,0-.6-.4s.3-.5.7-.5h2.5a1,1,0,0,0,1-.6.9.9,0,0,0-.8-1.3h-2A1.6,1.6,0,0,1,130,69a1.9,1.9,0,0,1,1.4-2,17.2,17.2,0,0,1,3.6-.1c.3,0,.3.3.3.5s-.1.4-.4.4h-3a.8.8,0,0,0-.7.8.8.8,0,0,0,.8.8h2a1.8,1.8,0,0,1,1.7,2,1.8,1.8,0,0,1-1.7,1.8h-1.7Z"/><path class="09e68dd8-63fe-40be-9a32-a4822b323698" d="M92.7,73.4c-.4.1-.6-.2-.8-.6s-.2-1.1-1.6-1.1H89a.6.6,0,0,0-.7.5l-.4.8c-.1.2-.2.3-.4.3s-.6.1-.8-.1.1-.5.2-.7l2.2-5.3c.2-.6.7-.5,1.1-.6s.7.2.8.6l2.2,5.5C93.4,73.4,93.4,73.5,92.7,73.4ZM90,67.8l-1,2.7c-.1.2,0,.3.2.3h1.5c.3,0,.3-.2.2-.4Z"/><path class="09e68dd8-63fe-40be-9a32-a4822b323698" d="M144.8,58c.4-.1.6.2.8.6l2.1,5.4c.1.2.4.5,0,.6s-.8.3-1.1-.2a5.6,5.6,0,0,1-.4-.9.7.7,0,0,0-.7-.5h-2a.7.7,0,0,0-.8.5l-.3.8c-.1.2-.2.4-.4.4s-.6.1-.8-.1.1-.5.2-.7l2.2-5.5C143.9,57.9,144.2,58,144.8,58Zm-.2,1-1,2.7c-.1.2,0,.3.2.3h1.6c.2,0,.3-.1.2-.3Z"/><path class="09e68dd8-63fe-40be-9a32-a4822b323698" d="M79.6,73.4c-.4.1-.6-.1-.7-.5s-.2-1.1-1.7-1.1H77c-1.1-.2-1.9.1-2.1,1.3s-.9.5-1.2.3-.1-.3,0-.5l1.9-4.5.4-1.1a.8.8,0,0,1,.9-.6,1,1,0,0,1,1.1.8c.7,1.8,1.4,3.5,2.1,5.3S80.3,73.4,79.6,73.4Zm-2.7-5.6-1,2.6c-.1.2,0,.4.2.4h1.6c.2,0,.3-.1.2-.3Z"/><path class="09e68dd8-63fe-40be-9a32-a4822b323698" d="M72.4,69.3c0-.7,0-1.4,0-2.1s.2-.5.6-.5.7,0,.6.4.1,2.9-.1,4.3a2,2,0,0,1-1.7,1.9,4.6,4.6,0,0,1-2.2,0A2,2,0,0,1,68,71.6a40.6,40.6,0,0,1-.1-4.4c0-.5.3-.4.6-.4s.6.1.6.5,0,2.5,0,3.7a1.4,1.4,0,0,0,.7,1.4,2.1,2.1,0,0,0,2.2-.2,1,1,0,0,0,.4-.9c0-.7,0-1.4,0-2.1Z"/><path class="09e68dd8-63fe-40be-9a32-a4822b323698" d="M109.7,61.3c0-.9,0-1.8,0-2.7s.2-.6.6-.6H113a1.8,1.8,0,0,1,1.8,1.1,2.5,2.5,0,0,1-.2,2.5,1.9,1.9,0,0,1-1.6.7h-1.6c-.5,0-.6.2-.6.6s0,.7,0,1.1.1.7-.6.7-.7-.2-.7-.7S109.7,62.2,109.7,61.3Zm1.2-1.1c0,.2,0,.4,0,.6s.1.6.6.6h1.1c.8,0,1.2-.3,1.2-1.1s-.2-1.2-1.1-1.3h-.6C110.7,58.9,110.9,58.7,110.9,60.1Z"/><path class="09e68dd8-63fe-40be-9a32-a4822b323698" d="M50.3,70.1c0-.9,0-1.8,0-2.7s.1-.6.6-.6h2.7a1.9,1.9,0,0,1,1.9,1.1,2.5,2.5,0,0,1-.2,2.5,1.8,1.8,0,0,1-1.5.7H52.2c-.5,0-.7.2-.7.7s0,.7,0,1.1-.1.6-.6.6-.6-.2-.6-.7S50.3,71,50.3,70.1Zm2.3,0h.7A1,1,0,0,0,54.4,69c0-.8-.2-1.2-1-1.3h-.6c-1.6,0-1.3-.2-1.4,1.3S51.4,70.1,52.6,70.1Z"/><path class="09e68dd8-63fe-40be-9a32-a4822b323698" d="M107,60.8h1.5c.4,0,.5.1.5.5s-.2.5-.5.5h-2.8c-.6,0-.6.1-.5.6a1.5,1.5,0,0,0,1.6,1.3h1.7c.4,0,.5.2.5.5s-.2.4-.5.4h-1.9a2.4,2.4,0,0,1-2.7-2.2,4.6,4.6,0,0,1,.3-3.1,2.7,2.7,0,0,1,2.5-1.4h1.7c.3,0,.5.1.5.5s-.2.4-.5.4h-2a1.5,1.5,0,0,0-1.3,1.5c0,.3.2.3.4.3H107Z"/><path class="09e68dd8-63fe-40be-9a32-a4822b323698" d="M105.4,70.6h-1.4c-.4,0-.6.1-.5.6a1.6,1.6,0,0,0,1.7,1.3h1.8c.3,0,.4.2.4.5s0,.5-.3.5a19.2,19.2,0,0,1-2.8-.1,2.2,2.2,0,0,1-1.8-1.7,4.9,4.9,0,0,1,.1-3.3,2.5,2.5,0,0,1,2.4-1.6H107c.3,0,.4.1.4.5s-.1.5-.4.5H105a1.5,1.5,0,0,0-1.4,1.5c0,.4.2.3.4.3h2.8c.4,0,.6,0,.6.5s-.3.5-.6.5h-1.4Z"/><path class="09e68dd8-63fe-40be-9a32-a4822b323698" d="M59,70.6H57.5c-.4,0-.5.2-.4.5a1.6,1.6,0,0,0,1.7,1.4h1.8c.3,0,.4.2.4.4s0,.5-.3.5a15.8,15.8,0,0,1-2.8-.1,2.4,2.4,0,0,1-2-2.3,5.5,5.5,0,0,1,.1-2.2,2.7,2.7,0,0,1,2.6-2h1.9c.4,0,.5.2.5.5s-.1.4-.5.4a11.5,11.5,0,0,0-2.1.1,1.5,1.5,0,0,0-1.3,1.3c-.1.4,0,.5.4.5h2.8c.4,0,.6,0,.6.5s-.3.5-.6.5H59Z"/><path class="09e68dd8-63fe-40be-9a32-a4822b323698" d="M46.7,61.8H45.2c-.3,0-.4.1-.4.4a1.6,1.6,0,0,0,1.6,1.5h1.8c.4,0,.5.2.5.5s-.2.4-.5.4H45.9a2.4,2.4,0,0,1-2.3-2,5.5,5.5,0,0,1,0-2.5A2.7,2.7,0,0,1,46.4,58h1.8c.4,0,.5.2.5.5s-.2.4-.5.4a11.3,11.3,0,0,0-2.2.1,1.5,1.5,0,0,0-1.2,1.5c0,.3.2.3.4.3h2.8c.3,0,.6,0,.6.5s-.3.5-.6.5H46.7Z"/><path class="09e68dd8-63fe-40be-9a32-a4822b323698" d="M119.1,73.4h-.9a2.4,2.4,0,0,1-2.5-2,5.5,5.5,0,0,1,0-2.1,2.7,2.7,0,0,1,2.7-2.5h1.9c.4,0,.4.2.5.5s-.1.4-.5.4a11.5,11.5,0,0,0-2.1.1,1.5,1.5,0,0,0-1.3,1.3c-.1.4,0,.5.4.5h2.8c.4,0,.6,0,.6.5s-.3.5-.6.5h-2.8c-.4,0-.5.2-.4.6a1.6,1.6,0,0,0,1.6,1.3h1.7c.4,0,.5.2.5.5s-.2.4-.5.4h-1.2Z"/><path class="09e68dd8-63fe-40be-9a32-a4822b323698" d="M58.9,60.8h1.5c.3,0,.5.2.5.5s-.2.5-.5.5H57.5c-.6,0-.7.1-.5.7a1.5,1.5,0,0,0,1.5,1.2h1.6c.3,0,.7-.1.7.5s-.4.4-.7.4H58.5a2.5,2.5,0,0,1-2.7-2.3,5.4,5.4,0,0,1,0-1.8A2.8,2.8,0,0,1,58.6,58h1.7c.3,0,.5.1.5.5s-.2.4-.5.5a11.2,11.2,0,0,0-2.1.1A1.5,1.5,0,0,0,57,60.5c0,.3.2.3.4.3h1.6Z"/><path class="09e68dd8-63fe-40be-9a32-a4822b323698" d="M138.8,63.3l1.6-3.9.4-1c.1-.2.2-.4.4-.4s.6-.1.8.1-.1.5-.1.7l-2.3,5.4c-.1.3-.3.5-.7.5s-.8.1-1.1-.5l-2.3-5.5c-.1-.2-.4-.5,0-.7a1,1,0,0,1,1.2.3l.8,2,1.2,3Z"/><path class="09e68dd8-63fe-40be-9a32-a4822b323698" d="M38.3,62.1a18,18,0,0,1,.1-2.1,2,2,0,0,1,1.8-1.8,17.3,17.3,0,0,1,2.8-.1c.3,0,.4.2.4.5s-.1.4-.4.4H40.6a1.2,1.2,0,0,0-1,.8c-.3.7-.1,1,.7,1h2.5c.4,0,.6.1.6.5s-.2.5-.6.5H40.2c-.5,0-.8.1-.7.7s0,1.1,0,1.6-.2.6-.6.5-.6-.1-.6-.5S38.3,62.9,38.3,62.1Z"/><path class="09e68dd8-63fe-40be-9a32-a4822b323698" d="M77.3,64.7H76.2a2.5,2.5,0,0,1-2.5-2,5,5,0,0,1,0-2.6A2.5,2.5,0,0,1,76.4,58h2.1c.4,0,.5.2.5.5s-.2.4-.5.4H76.3a1.4,1.4,0,0,0-1.3.9,4,4,0,0,0-.1,2.5,1.6,1.6,0,0,0,1.7,1.3h1.8c.4,0,.6.1.6.5s-.2.4-.6.4H77.3Z"/><path class="09e68dd8-63fe-40be-9a32-a4822b323698" d="M112.3,70.6c0-.6,0-1.1,0-1.7s.2-1.2-1.2-1.2h-.6c-.3,0-.5-.1-.5-.5s.1-.5.4-.5h4.8c.3,0,.4.2.4.5s-.1.5-.5.4h-1c-.8,0-.8,0-.8.9s0,2.9,0,4.3-.1.6-.6.6-.6-.1-.6-.6S112.3,71.3,112.3,70.6Z"/><path class="09e68dd8-63fe-40be-9a32-a4822b323698" d="M130.1,61.8c0-.8,0-1.6,0-2.4s-.1-.5-.5-.5h-1.4c-.3,0-.5-.1-.5-.5s.1-.5.4-.5h4.8c.3,0,.4.2.4.5s-.2.4-.5.4h-1.2c-.4,0-.6.1-.6.6s0,3,0,4.5-.1.7-.6.7-.6-.2-.6-.6S130.1,62.5,130.1,61.8Z"/><path class="09e68dd8-63fe-40be-9a32-a4822b323698" d="M133.8,61.3c0-.9,0-1.8,0-2.8s.1-.6.6-.6.6.1.6.6,0,3.8,0,5.7-.2.5-.6.4-.7,0-.7-.5,0-1.9,0-2.9Z"/><path class="09e68dd8-63fe-40be-9a32-a4822b323698" d="M80.8,61.3c0,.9,0,1.8,0,2.8s-.2.6-.6.6-.6-.2-.6-.6,0-3.6,0-5.5.2-.6.6-.6.6.2.6.6S80.8,60.4,80.8,61.3Z"/><path class="09e68dd8-63fe-40be-9a32-a4822b323698" d="M128.2,70.1c0-.9,0-1.8,0-2.7s.1-.6.6-.6.6.1.6.6,0,3.7,0,5.5-.2.6-.6.6-.6-.2-.6-.6S128.2,71,128.2,70.1Z"/><path class="42d3554a-a2c4-4d7d-80d2-36468c268cb8" d="M17.7,10.1A12.4,12.4,0,0,0,12.3,14a32.5,32.5,0,0,0-2.4,3.6A48.9,48.9,0,0,1,6.2,23a4,4,0,0,1-1.2.9c-.7.4-1.5.1-2.2-.7a2.7,2.7,0,0,1-.6-2.5,11.8,11.8,0,0,1,1.9-4.1,24.6,24.6,0,0,1,4.7-5.2,7,7,0,0,1,4.4-1.6,16.1,16.1,0,0,1,4.1.2Z"/><path class="42d3554a-a2c4-4d7d-80d2-36468c268cb8" d="M14.9,39.9h-.8c-.1,0-.3,0-.3-.2s.1-.2.2-.3l3.7-1.9,5.8-3.2,2.7-1.6c.3-.2.7-.5,1-.2s-.1.6-.3.9A15.7,15.7,0,0,1,22.4,38C20.1,39.5,17.5,39.8,14.9,39.9Z"/><path class="549fb4d5-ad44-43ae-a144-8f0620441f86" d="M124.3,19.7S91.9-1.2,28.1,13.1c0,0,3.6,3.2,3.8,5C31.9,18.1,69.2,4.8,124.3,19.7Z"/></g></g></svg>